# Blender 4.4.3
# www.blender.org
mtllib alien skyscraper 1.mtl
o Cube
v -1.961379 0.000000 1.961379
v -1.000000 2.000000 1.000000
v -1.961379 0.000000 -1.961379
v -1.000000 2.000000 -1.000000
v 1.961379 0.000000 1.961379
v 1.000000 2.000000 1.000000
v 1.961379 0.000000 -1.961379
v 1.000000 2.000000 -1.000000
v -1.000000 13.983091 1.000000
v -1.000000 13.983091 -1.000000
v 1.000000 13.983091 -1.000000
v 1.000000 13.983091 1.000000
v 2.219963 16.304123 7.135899
v -6.175766 16.304123 4.407913
v -6.175766 16.304123 -4.419825
v 2.219963 16.304123 -7.147810
v 7.408869 16.304104 -0.005956
v -0.100527 19.220718 -0.005956
v 7.884334 13.944489 2.588441
v 7.884334 13.944489 -2.600352
v -0.100527 13.944489 8.389812
v 4.834385 13.944489 6.786361
v -8.085388 13.944489 2.588441
v -5.035439 13.944489 6.786361
v -5.035439 13.944489 -6.798273
v -8.085388 13.944489 -2.600352
v 4.834385 13.944489 -6.798273
v -0.100527 13.944489 -8.401724
v 5.677352 16.718391 4.191905
v -2.307512 16.718403 6.786319
v -7.242369 16.718391 -0.005956
v -2.307512 16.718403 -6.798228
v 5.677352 16.718391 -4.203815
v 1.263411 18.432739 4.191888
v 4.313378 18.432724 -0.005956
v -3.671437 18.432739 2.588433
v -3.671437 18.432739 -2.600344
v 1.263411 18.432739 -4.203800
vn -0.9013 0.4332 -0.0000
vn -0.0000 0.4332 -0.9013
vn 0.9013 0.4332 -0.0000
vn -0.0000 0.4332 0.9013
vn -0.0000 -1.0000 -0.0000
vn -0.0000 -0.0000 -1.0000
vn -0.0000 1.0000 -0.0000
vn 1.0000 -0.0000 -0.0000
vn -1.0000 -0.0000 -0.0000
vn -0.0000 -0.0000 1.0000
vn 0.3164 0.8146 0.4862
vn -0.3646 0.8146 0.4511
vn -0.5417 0.8146 -0.2074
vn 0.0298 0.8146 -0.5793
vn 0.5601 0.8146 -0.1507
vn 0.1743 0.9765 -0.1267
vn 0.3501 0.9015 -0.2544
vn 0.3164 0.8146 -0.4862
vn -0.0666 0.9765 -0.2049
vn -0.1337 0.9015 -0.4116
vn -0.3646 0.8146 -0.4511
vn -0.2155 0.9765 -0.0000
vn -0.4328 0.9015 -0.0000
vn -0.5417 0.8146 0.2074
vn -0.0666 0.9765 0.2049
vn -0.1337 0.9015 0.4116
vn 0.0298 0.8146 0.5793
vn 0.1743 0.9765 0.1267
vn 0.3501 0.9015 0.2544
vn 0.5601 0.8146 0.1507
vn 0.8235 0.4866 -0.2917
vn 0.7741 0.2908 -0.5624
vn 0.5318 0.4866 -0.6931
vn -0.0229 0.4866 -0.8733
vn -0.2957 0.2908 -0.9100
vn -0.4948 0.4866 -0.7200
vn -0.8377 0.4866 -0.2481
vn -0.9568 0.2908 -0.0000
vn -0.8377 0.4866 0.2481
vn -0.4948 0.4866 0.7200
vn -0.2957 0.2908 0.9100
vn -0.0229 0.4866 0.8733
vn 0.5318 0.4866 0.6931
vn 0.7741 0.2908 0.5624
vn 0.8235 0.4866 0.2917
vn 0.3029 0.1975 -0.9323
vn -0.7931 0.1975 -0.5762
vn -0.7931 0.1975 0.5762
vn 0.3029 0.1975 0.9323
vn 0.9803 0.1975 -0.0000
vt 0.625000 0.000000
vt 0.375000 0.250000
vt 0.375000 0.000000
vt 0.625000 0.250000
vt 0.375000 0.500000
vt 0.625000 0.500000
vt 0.375000 0.750000
vt 0.625000 0.750000
vt 0.375000 1.000000
vt 0.125000 0.750000
vt 0.125000 0.500000
vt 0.875000 0.500000
vt 0.625000 1.000000
vt 0.000000 0.000000
vt 0.181819 0.314921
vt 0.272728 0.314921
vt 0.227273 0.393651
vt 0.000000 0.314921
vt 0.090910 0.314921
vt 0.045455 0.393651
vt 0.727273 0.314921
vt 0.818182 0.314921
vt 0.772727 0.393651
vt 0.545455 0.314921
vt 0.636364 0.314921
vt 0.590909 0.393651
vt 0.363637 0.314921
vt 0.454546 0.314921
vt 0.409092 0.393651
vt 0.500000 0.393651
vt 0.454546 0.472382
vt 0.681818 0.393651
vt 0.636364 0.472382
vt 0.863636 0.393651
vt 0.818182 0.472382
vt 0.909091 0.314921
vt 0.136365 0.393651
vt 0.090910 0.472382
vt 0.318182 0.393651
vt 0.272728 0.472382
vt 0.409092 0.236191
vt 0.500000 0.236191
vt 0.590909 0.236191
vt 0.681818 0.236191
vt 0.772727 0.236191
vt 0.863636 0.236191
vt 0.045455 0.236191
vt 0.136365 0.236191
vt 0.227273 0.236191
vt 0.318182 0.236191
vt 0.954545 0.236191
vt 0.875000 0.750000
s 0
usemtl Material
f 2/1/1 3/2/1 1/3/1
f 4/4/2 7/5/2 3/2/2
f 8/6/3 5/7/3 7/5/3
f 6/8/4 1/9/4 5/7/4
f 7/5/5 1/10/5 3/11/5
f 4/4/6 11/6/6 8/6/6
f 10/12/7 12/8/7 11/6/7
f 8/6/8 12/8/8 6/8/8
f 2/1/9 10/4/9 4/4/9
f 6/8/10 9/13/10 2/13/10
f 27/14/5 20/14/5 28/14/5
f 28/14/5 20/14/5 26/14/5
f 25/14/5 28/14/5 26/14/5
f 22/14/5 21/14/5 19/14/5
f 19/14/5 23/14/5 26/14/5
f 19/14/5 26/14/5 20/14/5
f 21/14/5 23/14/5 19/14/5
f 21/14/5 24/14/5 23/14/5
f 13/15/11 29/16/11 34/17/11
f 14/18/12 30/19/12 36/20/12
f 15/21/13 31/22/13 37/23/13
f 16/24/14 32/25/14 38/26/14
f 17/27/15 33/28/15 35/29/15
f 35/29/16 38/30/16 18/31/16
f 35/29/17 33/28/17 38/30/17
f 33/28/18 16/24/18 38/30/18
f 38/26/19 37/32/19 18/33/19
f 38/26/20 32/25/20 37/32/20
f 32/25/21 15/21/21 37/32/21
f 37/23/22 36/34/22 18/35/22
f 37/23/23 31/22/23 36/34/23
f 31/22/24 14/36/24 36/34/24
f 36/20/25 34/37/25 18/38/25
f 36/20/26 30/19/26 34/37/26
f 30/19/27 13/15/27 34/37/27
f 34/17/28 35/39/28 18/40/28
f 34/17/29 29/16/29 35/39/29
f 29/16/30 17/27/30 35/39/30
f 20/41/31 33/28/31 17/27/31
f 20/41/32 27/42/32 33/28/32
f 27/42/33 16/24/33 33/28/33
f 28/43/34 32/25/34 16/24/34
f 28/43/35 25/44/35 32/25/35
f 25/44/36 15/21/36 32/25/36
f 26/45/37 31/22/37 15/21/37
f 26/45/38 23/46/38 31/22/38
f 23/46/39 14/36/39 31/22/39
f 24/47/40 30/19/40 14/18/40
f 24/47/41 21/48/41 30/19/41
f 21/48/42 13/15/42 30/19/42
f 22/49/43 29/16/43 13/15/43
f 22/49/44 19/50/44 29/16/44
f 19/50/45 17/27/45 29/16/45
f 27/42/46 28/43/46 16/24/46
f 25/44/47 26/45/47 15/21/47
f 23/46/48 24/51/48 14/36/48
f 21/48/49 22/49/49 13/15/49
f 19/50/50 20/41/50 17/27/50
f 2/1/1 4/4/1 3/2/1
f 4/4/2 8/6/2 7/5/2
f 8/6/3 6/8/3 5/7/3
f 6/8/4 2/13/4 1/9/4
f 7/5/5 5/7/5 1/10/5
f 4/4/6 10/4/6 11/6/6
f 10/12/7 9/52/7 12/8/7
f 8/6/8 11/6/8 12/8/8
f 2/1/9 9/1/9 10/4/9
f 6/8/10 12/8/10 9/13/10
