# Blender 4.4.3
# www.blender.org
mtllib alien patrol bottom.mtl
o Torus
v 1.250000 0.000000 0.000000
v 1.000000 0.250000 0.000000
v 0.750000 0.000000 0.000000
v 1.000000 -0.250000 0.000000
v 1.011271 0.000000 -0.734732
v 0.809017 0.250000 -0.587785
v 0.606763 0.000000 -0.440839
v 0.809017 -0.250000 -0.587785
v 0.386271 0.000000 -1.188821
v 0.309017 0.250000 -0.951056
v 0.231763 0.000000 -0.713292
v 0.309017 -0.250000 -0.951056
v -0.386271 0.000000 -1.188821
v -0.309017 0.250000 -0.951056
v -0.231763 0.000000 -0.713292
v -0.309017 -0.250000 -0.951056
v -1.011271 0.000000 -0.734731
v -0.809017 0.250000 -0.587785
v -0.606763 0.000000 -0.440839
v -0.809017 -0.250000 -0.587785
v -1.250000 0.000000 -0.000000
v -1.000000 0.250000 -0.000000
v -0.750000 0.000000 -0.000000
v -1.000000 -0.250000 -0.000000
v -1.011271 0.000000 0.734731
v -0.809017 0.250000 0.587785
v -0.606763 0.000000 0.440839
v -0.809017 -0.250000 0.587785
v -0.386271 0.000000 1.188821
v -0.309017 0.250000 0.951056
v -0.231763 0.000000 0.713292
v -0.309017 -0.250000 0.951056
v 0.386271 0.000000 1.188821
v 0.309017 0.250000 0.951056
v 0.231763 0.000000 0.713292
v 0.309017 -0.250000 0.951056
v 1.011271 0.000000 0.734732
v 0.809017 0.250000 0.587786
v 0.606763 0.000000 0.440839
v 0.809017 -0.250000 0.587786
v 0.000000 3.500000 -2.000000
v -2.000000 3.500000 0.000000
v 0.000000 3.500000 2.000000
v 2.000000 3.500000 0.000000
v -0.000000 0.500000 0.000000
vn 0.6892 0.6892 -0.2239
vn -0.6892 0.6892 0.2239
vn -0.6892 -0.6892 0.2239
vn 0.6892 -0.6892 -0.2239
vn 0.4259 0.6892 -0.5862
vn -0.4259 0.6892 0.5862
vn -0.4259 -0.6892 0.5862
vn 0.4259 -0.6892 -0.5862
vn -0.0000 0.6892 -0.7246
vn -0.0000 0.6892 0.7246
vn -0.0000 -0.6892 0.7246
vn -0.0000 -0.6892 -0.7246
vn -0.4259 0.6892 -0.5862
vn 0.4259 0.6892 0.5862
vn 0.4259 -0.6892 0.5862
vn -0.4259 -0.6892 -0.5862
vn -0.6892 0.6892 -0.2239
vn 0.6892 0.6892 0.2239
vn 0.6892 -0.6892 0.2239
vn -0.6892 -0.6892 -0.2239
vn -0.6396 -0.4264 -0.6396
vn -0.6396 -0.4264 0.6396
vn -0.0000 1.0000 -0.0000
vn 0.6396 -0.4264 0.6396
vn 0.6396 -0.4264 -0.6396
vt 0.917469 0.935573
vt 0.917140 0.952620
vt 0.908942 0.951945
vt 0.923962 0.939523
vt 0.925338 0.953295
vt 0.704714 0.960148
vt 0.685662 0.966862
vt 0.690323 0.959044
vt 0.677418 0.968417
vt 0.658093 0.958760
vt 0.682079 0.960600
vt 0.938397 0.926745
vt 0.940704 0.932460
vt 0.930455 0.943472
vt 0.719227 0.956869
vt 0.704850 0.968334
vt 0.658229 0.966945
vt 0.633905 0.964227
vt 0.960972 0.934129
vt 0.943012 0.938175
vt 0.567017 0.989860
vt 0.548324 0.993397
vt 0.554760 0.986369
vt 0.679052 0.988739
vt 0.699305 0.986275
vt 0.692663 0.993427
vt 0.983796 0.941035
vt 0.963731 0.928831
vt 0.970251 0.946749
vt 0.958212 0.939426
vt 0.582217 0.988716
vt 0.564668 0.998053
vt 0.659376 0.990221
vt 0.682292 0.980415
vt 0.990925 0.958695
vt 0.977023 0.943892
vt 0.982727 0.958020
vt 0.594552 0.983373
vt 0.584934 0.996527
vt 0.641150 0.997305
vt 0.657697 0.982267
vt 0.982398 0.975067
vt 0.975905 0.971117
vt 0.974529 0.957345
vt 0.705103 0.970502
vt 0.686051 0.977216
vt 0.690712 0.969398
vt 0.572124 0.982145
vt 0.595973 0.975799
vt 0.591312 0.983617
vt 0.961470 0.983895
vt 0.959163 0.978180
vt 0.969412 0.967168
vt 0.724590 0.974314
vt 0.705239 0.978688
vt 0.552773 0.986518
vt 0.571988 0.973959
vt 0.936136 0.981809
vt 0.938895 0.976511
vt 0.956855 0.972465
vt 0.651284 0.974669
vt 0.634433 0.978306
vt 0.641076 0.971153
vt 0.966866 0.998245
vt 0.953966 0.983277
vt 0.973813 0.992271
vt 0.916072 0.969605
vt 0.929616 0.963891
vt 0.941655 0.971214
vt 0.666041 0.973558
vt 0.648044 0.982994
vt 0.930728 0.989381
vt 0.950989 0.991050
vt 0.922844 0.966748
vt 0.685946 0.974428
vt 0.667720 0.981512
vt 0.913824 0.993877
vt 0.928640 0.981192
vt 0.576059 0.622809
vt 0.398442 0.886072
vt 0.240230 0.611335
vt 0.894806 0.527907
vt 0.894806 0.973477
vt 0.691810 0.774076
vt 0.146893 -0.000000
vt 0.341500 0.552520
vt 0.146893 0.414042
vt 0.303655 0.812238
vt 0.105073 1.000000
vt 0.105073 0.552520
vt 0.764862 0.618012
vt 0.601663 0.886836
vt 0.428936 0.617129
vt 0.724201 0.963961
vt 0.638879 0.971319
vt 0.601381 0.989403
vt 0.634915 0.991123
vt 0.719616 0.967222
vt 0.547799 0.979426
vt 0.679710 0.968245
vt 0.907510 0.986812
vt 0.341500 0.138478
s 0
usemtl Material.001
f 5/1/1 2/2/1 1/3/1
f 6/4/2 3/5/2 2/2/2
f 7/6/3 4/7/3 3/8/3
f 4/9/4 5/10/4 1/11/4
f 9/12/5 6/4/5 5/1/5
f 10/13/6 7/14/6 6/4/6
f 11/15/7 8/16/7 7/6/7
f 8/17/8 9/18/8 5/10/8
f 9/12/9 14/19/9 10/13/9
f 14/19/10 11/20/10 10/13/10
f 15/21/11 12/22/11 11/23/11
f 16/24/12 9/25/12 12/26/12
f 17/27/13 14/19/13 13/28/13
f 14/19/14 19/29/14 15/30/14
f 19/31/15 16/32/15 15/21/15
f 20/33/16 13/34/16 16/24/16
f 21/35/17 18/36/17 17/27/17
f 22/37/18 19/29/18 18/36/18
f 23/38/19 20/39/19 19/31/19
f 24/40/20 17/41/20 20/33/20
f 25/42/2 22/37/2 21/35/2
f 26/43/1 23/44/1 22/37/1
f 27/45/4 24/46/4 23/47/4
f 28/48/3 21/49/3 24/50/3
f 29/51/6 26/43/6 25/42/6
f 30/52/5 27/53/5 26/43/5
f 27/45/8 32/54/8 28/55/8
f 32/56/7 25/57/7 28/48/7
f 33/58/10 30/52/10 29/51/10
f 34/59/9 31/60/9 30/52/9
f 35/61/12 32/62/12 31/63/12
f 32/64/11 33/65/11 29/66/11
f 37/67/14 34/59/14 33/58/14
f 34/59/13 39/68/13 35/69/13
f 39/70/16 36/71/16 35/61/16
f 40/72/15 33/65/15 36/73/15
f 1/3/18 38/74/18 37/67/18
f 38/74/17 3/5/17 39/68/17
f 39/70/20 4/75/20 40/76/20
f 4/77/19 37/78/19 40/72/19
f 41/79/21 45/80/21 42/81/21
f 42/82/22 45/83/22 43/84/22
f 42/85/23 44/86/23 41/87/23
f 43/88/24 45/89/24 44/90/24
f 44/91/25 45/92/25 41/93/25
f 5/1/1 6/4/1 2/2/1
f 6/4/2 7/14/2 3/5/2
f 7/6/3 8/16/3 4/7/3
f 4/9/4 8/17/4 5/10/4
f 9/12/5 10/13/5 6/4/5
f 10/13/6 11/20/6 7/14/6
f 11/15/7 12/94/7 8/16/7
f 8/17/8 12/95/8 9/18/8
f 9/12/9 13/28/9 14/19/9
f 14/19/10 15/30/10 11/20/10
f 15/21/11 16/32/11 12/22/11
f 16/24/12 13/34/12 9/25/12
f 17/27/13 18/36/13 14/19/13
f 14/19/14 18/36/14 19/29/14
f 19/31/15 20/39/15 16/32/15
f 20/33/16 17/41/16 13/34/16
f 21/35/17 22/37/17 18/36/17
f 22/37/18 23/44/18 19/29/18
f 23/38/19 24/96/19 20/39/19
f 24/40/20 21/97/20 17/41/20
f 25/42/2 26/43/2 22/37/2
f 26/43/1 27/53/1 23/44/1
f 27/45/4 28/55/4 24/46/4
f 28/48/3 25/57/3 21/49/3
f 29/51/6 30/52/6 26/43/6
f 30/52/5 31/60/5 27/53/5
f 27/45/8 31/98/8 32/54/8
f 32/56/7 29/99/7 25/57/7
f 33/58/10 34/59/10 30/52/10
f 34/59/9 35/69/9 31/60/9
f 35/61/12 36/71/12 32/62/12
f 32/64/11 36/73/11 33/65/11
f 37/67/14 38/74/14 34/59/14
f 34/59/13 38/74/13 39/68/13
f 39/70/16 40/76/16 36/71/16
f 40/72/15 37/78/15 33/65/15
f 1/3/18 2/2/18 38/74/18
f 38/74/17 2/2/17 3/5/17
f 39/70/20 3/100/20 4/75/20
f 4/77/19 1/101/19 37/78/19
f 42/85/23 43/102/23 44/86/23
