# Blender 4.4.3
# www.blender.org
mtllib alien skyscraper 2.mtl
o Torus
v 10.957642 0.000000 0.000000
v 7.670349 0.074005 0.000000
v 7.670349 -0.074005 0.000000
v 0.000001 0.000000 -10.957642
v 0.000001 0.074005 -7.670349
v 0.000001 -0.074005 -7.670349
v -10.957642 0.000000 -0.000001
v -7.670349 0.074005 -0.000001
v -7.670349 -0.074005 -0.000001
v 0.000001 0.000000 10.957642
v 0.000001 0.074005 7.670349
v 0.000001 -0.074005 7.670349
vn 0.0225 0.9995 -0.0225
vn -0.7071 -0.0000 0.7071
vn 0.0225 -0.9995 -0.0225
vn -0.0225 0.9995 -0.0225
vn 0.7071 -0.0000 0.7071
vn -0.0225 -0.9995 -0.0225
vn -0.0225 0.9995 0.0225
vn 0.7071 -0.0000 -0.7071
vn -0.0225 -0.9995 0.0225
vn 0.0225 0.9995 0.0225
vn -0.7071 -0.0000 -0.7071
vn 0.0225 -0.9995 0.0225
vt 0.750000 0.666667
vt 0.500000 1.000000
vt 0.500000 0.666667
vt 0.750000 0.000000
vt 0.500000 0.333333
vt 0.500000 0.000000
vt 0.750000 0.333333
vt 1.000000 0.666667
vt 0.750000 1.000000
vt 1.000000 0.000000
vt 0.250000 0.666667
vt 0.000000 1.000000
vt 0.000000 0.666667
vt 0.250000 0.000000
vt 0.000000 0.333333
vt 0.000000 0.000000
vt 0.250000 0.333333
vt 0.250000 1.000000
vt 1.000000 1.000000
vt 1.000000 0.333333
s 0
usemtl Material.001
f 4/1/1 2/2/1 1/3/1
f 5/4/2 3/5/2 2/6/2
f 6/7/3 1/3/3 3/5/3
f 7/8/4 5/9/4 4/1/4
f 8/10/5 6/7/5 5/4/5
f 6/7/6 7/8/6 4/1/6
f 10/11/7 8/12/7 7/13/7
f 11/14/8 9/15/8 8/16/8
f 12/17/9 7/13/9 9/15/9
f 10/11/10 2/2/10 11/18/10
f 2/6/11 12/17/11 11/14/11
f 3/5/12 10/11/12 12/17/12
f 4/1/1 5/9/1 2/2/1
f 5/4/2 6/7/2 3/5/2
f 6/7/3 4/1/3 1/3/3
f 7/8/4 8/19/4 5/9/4
f 8/10/5 9/20/5 6/7/5
f 6/7/6 9/20/6 7/8/6
f 10/11/7 11/18/7 8/12/7
f 11/14/8 12/17/8 9/15/8
f 12/17/9 10/11/9 7/13/9
f 10/11/10 1/3/10 2/2/10
f 2/6/11 3/5/11 12/17/11
f 3/5/12 1/3/12 10/11/12
