# Blender 4.4.3
# www.blender.org
mtllib alien patrol top.mtl
o Icosphere
v 0.331666 4.036664 1.020779
v -0.868329 4.036664 0.630870
v -0.868329 4.036664 -0.630870
v 0.331666 4.036664 -1.020779
v 1.073312 4.036659 0.000000
v 0.000000 4.700000 0.000000
v 1.141270 3.500000 0.370815
v 1.141270 3.500000 -0.370815
v 0.000000 3.500000 1.200000
v 0.705343 3.500000 0.970820
v -1.141270 3.500000 0.370815
v -0.705343 3.500000 0.970820
v -0.705343 3.500000 -0.970820
v -1.141270 3.500000 -0.370815
v 0.705343 3.500000 -0.970820
v 0.000000 3.500000 -1.200000
v 0.825827 4.130883 0.599996
v -0.315443 4.130885 0.970814
v -1.020777 4.130883 0.000000
v -0.315443 4.130885 -0.970814
v 0.825827 4.130883 -0.599996
v 0.194947 4.520785 0.599994
v 0.630876 4.520782 0.000000
v -0.510387 4.520785 0.370814
v -0.510387 4.520785 -0.370814
v 0.194947 4.520785 -0.599994
v 0.980090 3.500000 0.592661
v -1.117349 3.500000 -0.403739
v -0.000000 4.547395 0.485487
v -0.000000 5.395749 1.014915
v 0.086603 4.467980 0.612740
v 0.086603 5.316334 1.142169
v -0.086603 4.467980 0.612740
v -0.086603 5.316334 1.142169
v -0.000000 4.462642 -0.588682
v -0.000000 5.251770 -1.202911
v 0.086603 4.554776 -0.470313
v 0.086603 5.343904 -1.084541
v -0.086603 4.554776 -0.470313
v -0.086603 5.343904 -1.084541
v 0.000000 5.161980 -1.246775
v 0.217082 5.327814 -1.089057
v -0.082916 5.327813 -0.991580
v -0.268328 5.327815 -1.246775
v -0.082916 5.327813 -1.501970
v 0.217082 5.327814 -1.404492
v 0.082916 5.596146 -0.991580
v -0.217082 5.596145 -1.089057
v -0.217082 5.596145 -1.404492
v 0.082916 5.596146 -1.501970
v 0.268328 5.596144 -1.246775
v 0.000000 5.761979 -1.246775
v -0.048737 5.206783 -1.096776
v 0.127597 5.206783 -1.154071
v 0.078861 5.304258 -1.004071
v 0.255194 5.304258 -1.246775
v 0.127597 5.206783 -1.339478
v -0.157719 5.206784 -1.246775
v -0.206457 5.304258 -1.096776
v -0.048737 5.206783 -1.396773
v -0.206457 5.304258 -1.396774
v 0.078861 5.304258 -1.489478
v 0.285317 5.461979 -1.154071
v 0.285317 5.461979 -1.339479
v 0.000000 5.461979 -0.946775
v 0.176336 5.461979 -1.004070
v -0.285317 5.461979 -1.154071
v -0.176336 5.461979 -1.004070
v -0.176336 5.461979 -1.489480
v -0.285317 5.461979 -1.339479
v 0.176336 5.461979 -1.489480
v 0.000000 5.461979 -1.546775
v 0.206457 5.619700 -1.096776
v -0.078861 5.619700 -1.004071
v -0.255194 5.619700 -1.246775
v -0.078861 5.619700 -1.489478
v 0.206457 5.619700 -1.396774
v 0.048737 5.717175 -1.096776
v 0.157719 5.717175 -1.246775
v -0.127597 5.717175 -1.154071
v -0.127597 5.717175 -1.339478
v 0.048737 5.717175 -1.396773
v 0.000000 5.273965 1.194515
v 0.217082 5.439799 1.352233
v -0.082916 5.439799 1.449710
v -0.268328 5.439800 1.194515
v -0.082916 5.439799 0.939320
v 0.217082 5.439799 1.036797
v 0.082916 5.708131 1.449710
v -0.217082 5.708131 1.352233
v -0.217082 5.708131 1.036797
v 0.082916 5.708131 0.939320
v 0.268328 5.708130 1.194515
v 0.000000 5.873965 1.194515
v -0.048737 5.318769 1.344514
v 0.127597 5.318769 1.287218
v 0.078861 5.416244 1.437218
v 0.255194 5.416245 1.194515
v 0.127597 5.318769 1.101812
v -0.157719 5.318769 1.194515
v -0.206457 5.416245 1.344514
v -0.048737 5.318769 1.044516
v -0.206457 5.416245 1.044516
v 0.078861 5.416244 0.951811
v 0.285317 5.573965 1.287219
v 0.285317 5.573965 1.101811
v 0.000000 5.573965 1.494515
v 0.176336 5.573965 1.437220
v -0.285317 5.573965 1.287219
v -0.176336 5.573965 1.437220
v -0.176336 5.573965 0.951810
v -0.285317 5.573965 1.101811
v 0.176336 5.573965 0.951810
v 0.000000 5.573965 0.894515
v 0.206457 5.731686 1.344514
v -0.078861 5.731687 1.437218
v -0.255194 5.731686 1.194515
v -0.078861 5.731687 0.951811
v 0.206457 5.731686 1.044516
v 0.048737 5.829162 1.344514
v 0.157719 5.829161 1.194515
v -0.127597 5.829162 1.287218
v -0.127597 5.829162 1.101812
v 0.048737 5.829162 1.044516
vn 0.4089 0.6617 0.6284
vn -0.4713 0.6617 0.5831
vn -0.7002 0.6617 -0.2680
vn 0.0385 0.6617 -0.7488
vn 0.7240 0.6617 -0.1947
vn 0.2680 0.9435 -0.1947
vn 0.4911 0.7947 -0.3568
vn 0.4089 0.6617 -0.6284
vn -0.1024 0.9435 -0.3151
vn -0.1876 0.7947 -0.5773
vn -0.4713 0.6617 -0.5831
vn -0.3313 0.9435 -0.0000
vn -0.6071 0.7947 -0.0000
vn -0.7002 0.6617 0.2680
vn -0.1024 0.9435 0.3151
vn -0.1876 0.7947 0.5773
vn 0.0385 0.6617 0.7488
vn 0.2680 0.9435 0.1947
vn 0.4911 0.7947 0.3568
vn 0.7240 0.6617 0.1947
vn 0.8897 0.3304 -0.3151
vn 0.7947 0.1876 -0.5773
vn 0.5746 0.3304 -0.7488
vn -0.0247 0.3304 -0.9435
vn -0.3035 0.1876 -0.9342
vn -0.5346 0.3304 -0.7779
vn -0.9050 0.3304 -0.2680
vn -0.9822 0.1876 -0.0000
vn -0.9050 0.3304 0.2680
vn -0.5346 0.3304 0.7779
vn -0.3035 0.1876 0.9342
vn -0.0247 0.3304 0.9435
vn 0.5746 0.3304 0.7488
vn 0.7947 0.1876 0.5773
vn 0.8897 0.3304 0.3151
vn 0.3066 0.1256 -0.9435
vn -0.8026 0.1256 -0.5831
vn -0.8026 0.1256 0.5831
vn 0.3066 0.1256 0.9435
vn 0.9921 0.1256 -0.0000
vn -0.0000 -1.0000 -0.0000
vn 0.8660 0.2647 -0.4242
vn -0.0000 -0.5294 0.8484
vn -0.0000 0.8484 0.5294
vn -0.8660 0.2647 -0.4242
vn -0.0000 -0.8484 -0.5294
vn 0.8660 -0.3071 -0.3946
vn -0.0000 0.6142 0.7891
vn -0.0000 0.7891 -0.6142
vn -0.8660 -0.3071 -0.3946
vn -0.0000 -0.7891 0.6142
vn 0.1024 -0.9435 0.3151
vn 0.7002 -0.6617 0.2680
vn -0.2680 -0.9435 0.1947
vn -0.2680 -0.9435 -0.1947
vn 0.1024 -0.9435 -0.3151
vn 0.9050 -0.3304 0.2680
vn 0.0247 -0.3304 0.9435
vn -0.8897 -0.3304 0.3151
vn -0.5746 -0.3304 -0.7488
vn 0.5346 -0.3304 -0.7779
vn 0.8026 -0.1256 0.5831
vn -0.3066 -0.1256 0.9435
vn -0.9921 -0.1256 -0.0000
vn -0.3066 -0.1256 -0.9435
vn 0.8026 -0.1256 -0.5831
vn 0.3035 -0.1876 -0.9342
vn 0.0247 -0.3304 -0.9435
vn -0.7947 -0.1876 -0.5773
vn -0.8897 -0.3304 -0.3151
vn -0.7947 -0.1876 0.5773
vn -0.5746 -0.3304 0.7488
vn 0.3035 -0.1876 0.9342
vn 0.5346 -0.3304 0.7779
vn 0.9822 -0.1876 -0.0000
vn 0.9050 -0.3304 -0.2680
vn 0.4713 -0.6617 -0.5831
vn 0.1876 -0.7947 -0.5773
vn -0.0385 -0.6617 -0.7488
vn -0.4089 -0.6617 -0.6284
vn -0.4911 -0.7947 -0.3568
vn -0.7240 -0.6617 -0.1947
vn -0.7240 -0.6617 0.1947
vn -0.4911 -0.7947 0.3568
vn -0.4089 -0.6617 0.6284
vn 0.7002 -0.6617 -0.2680
vn 0.6071 -0.7947 -0.0000
vn 0.3313 -0.9435 -0.0000
vn -0.0385 -0.6617 0.7488
vn 0.1876 -0.7947 0.5773
vn 0.4713 -0.6617 0.5831
vt 0.181819 0.314921
vt 0.272728 0.314921
vt 0.227273 0.393651
vt 0.000000 0.314921
vt 0.090910 0.314921
vt 0.045455 0.393651
vt 0.727273 0.314921
vt 0.818182 0.314921
vt 0.772727 0.393651
vt 0.545455 0.314921
vt 0.636364 0.314921
vt 0.590909 0.393651
vt 0.776072 0.088837
vt 0.735700 0.089242
vt 0.755711 0.054077
vt 0.409092 0.393651
vt 0.500000 0.393651
vt 0.454546 0.472382
vt 0.454546 0.314921
vt 0.681818 0.393651
vt 0.636364 0.472382
vt 0.863636 0.393651
vt 0.818182 0.472382
vt 0.909091 0.314921
vt 0.136365 0.393651
vt 0.090910 0.472382
vt 0.318182 0.393651
vt 0.272728 0.472382
vt 0.816443 0.088432
vt 0.796082 0.053672
vt 0.409092 0.236191
vt 0.363637 0.314921
vt 0.500000 0.236191
vt 0.590909 0.236191
vt 0.681818 0.236191
vt 0.772727 0.236191
vt 0.863636 0.236191
vt 0.045455 0.236191
vt 0.136365 0.236191
vt 0.227273 0.236191
vt 0.284570 0.236191
vt 0.318182 0.236191
vt 0.767739 0.236191
vt 0.954545 0.236191
vt 0.000000 0.000000
vt 0.387694 0.452222
vt 0.364586 0.984733
vt 0.354764 0.484377
vt 0.300191 0.858132
vt 0.240975 0.436777
vt 0.292365 0.459472
vt 0.598566 0.088589
vt 0.560758 0.064498
vt 0.598566 0.000000
vt 0.357523 0.984437
vt 0.297777 0.463099
vt 0.347824 0.490315
vt 0.598566 0.153087
vt 0.560758 0.177179
vt 0.560758 0.088589
vt 0.599474 0.417601
vt 0.549236 0.905174
vt 0.558792 0.400360
vt 0.687131 0.861825
vt 0.651656 0.415886
vt 0.695352 0.427547
vt 0.598566 -0.000000
vt 0.618809 0.075437
vt 0.598566 0.104333
vt 0.648727 0.415455
vt 0.594863 0.919395
vt 0.603604 0.457608
vt 0.344446 0.554179
vt 0.322969 0.627992
vt 0.322969 0.522937
vt 0.092107 0.963471
vt 0.085592 0.976607
vt 0.080654 0.941383
vt 0.030322 0.928984
vt 0.041043 0.940437
vt 0.031249 0.963975
vt 0.093239 0.934140
vt 0.105956 0.964887
vt 0.101229 0.991133
vt 0.019085 0.944492
vt 0.149912 0.950877
vt 0.146582 0.983085
vt 0.137045 0.963252
vt 0.158959 0.899804
vt 0.156847 0.921707
vt 0.148706 0.895298
vt 0.041144 0.815194
vt 0.043640 0.847806
vt 0.032681 0.826443
vt 0.064123 0.988746
vt 0.051922 0.964811
vt 0.067541 0.964811
vt 0.021361 0.908912
vt 0.143389 0.925318
vt 0.041144 0.882563
vt 0.030484 0.901419
vt 0.032681 0.866042
vt 0.042427 0.936371
vt 0.044400 0.909238
vt 0.054789 0.934026
vt 0.077788 0.989835
vt 0.027072 0.806210
vt 0.014446 0.782570
vt 0.030364 0.782571
vt 0.136063 0.905947
vt 0.128904 0.936842
vt 0.125270 0.913945
vt 0.022500 0.846220
vt 0.019525 0.880057
vt 0.011395 0.849120
vt 0.068999 0.936370
vt 0.060020 0.909238
vt 0.076005 0.924703
vt 0.004827 0.754939
vt 0.006973 0.728704
vt 0.017289 0.752434
vt 0.022891 0.728704
vt 0.031908 0.754939
vt 0.080654 0.959049
vt 0.039428 0.744175
vt 0.009197 0.820425
vt 0.019525 0.815985
vt 0.044046 0.777466
vt 0.009197 0.884496
vt 0.018762 0.906406
vt 0.041204 0.807602
vt 0.019085 0.984021
vt 0.009197 0.992918
vt 0.009628 0.963088
vt 0.125270 0.970484
vt 0.015448 0.807602
vt 0.009197 0.928958
vt 0.132097 0.994610
vt 0.034932 0.906406
vt 0.030322 0.996235
vt 0.052515 0.989835
vt 0.116521 0.990385
vt 0.118123 0.962198
vt 0.108531 0.933391
vt 0.096489 0.909887
vt 0.083230 0.909887
vt 0.158820 0.957409
vt 0.041043 0.979966
vt 0.153873 0.988766
vt 0.882291 0.880620
vt 0.887218 0.868760
vt 0.893153 0.898375
vt 0.966305 0.812271
vt 0.956587 0.803532
vt 0.963809 0.782463
vt 0.882752 0.905794
vt 0.870389 0.880763
vt 0.873149 0.857875
vt 0.975152 0.797923
vt 0.965647 0.937231
vt 0.966924 0.909386
vt 0.976039 0.925401
vt 0.960405 0.981756
vt 0.961143 0.962834
vt 0.969385 0.984605
vt 0.933327 0.988726
vt 0.929606 0.961104
vt 0.940010 0.978287
vt 0.904940 0.855736
vt 0.916531 0.874996
vt 0.903185 0.876521
vt 0.974940 0.828547
vt 0.972466 0.958434
vt 0.930046 0.931161
vt 0.938236 0.914008
vt 0.938081 0.944451
vt 0.926030 0.898369
vt 0.925665 0.921747
vt 0.915581 0.901581
vt 0.893211 0.856140
vt 0.966516 0.832862
vt 0.978456 0.851829
vt 0.964854 0.853383
vt 0.979670 0.974270
vt 0.984282 0.947172
vt 0.988503 0.966382
vt 0.947746 0.960395
vt 0.948640 0.931191
vt 0.957094 0.956832
vt 0.903324 0.900965
vt 0.912319 0.923272
vt 0.897907 0.911619
vt 0.988021 0.874499
vt 0.987466 0.897126
vt 0.977494 0.877857
vt 0.973864 0.898680
vt 0.964881 0.877144
vt 0.892261 0.882725
vt 0.958980 0.887076
vt 0.960370 0.981136
vt 0.951761 0.985939
vt 0.953412 0.859081
vt 0.957249 0.926389
vt 0.948009 0.908602
vt 0.954373 0.833053
vt 0.973226 0.764147
vt 0.981242 0.755579
vt 0.982327 0.781110
vt 0.985749 0.918071
vt 0.976381 0.830538
vt 0.984357 0.810231
vt 0.978739 0.898123
vt 0.963466 0.832014
vt 0.963029 0.754808
vt 0.914805 0.853672
vt 0.860119 0.860008
vt 0.860123 0.884249
vt 0.869722 0.907927
vt 0.881157 0.926834
vt 0.892487 0.925539
vt 0.957717 0.932520
vt 0.954661 0.769756
vt 0.960417 0.905243
vt 0.397516 0.952578
vt 0.248801 0.835437
vt 0.307477 0.957221
vt 0.589918 0.922415
vt 0.643436 0.850165
vt 0.639986 0.877241
s 0
usemtl Material.002
f 1/1/1 17/2/1 22/3/1
f 2/4/2 18/5/2 24/6/2
f 3/7/3 19/8/3 25/9/3
f 4/10/4 20/11/4 26/12/4
f 5/13/5 21/14/5 23/15/5
f 23/16/6 26/17/6 6/18/6
f 23/16/7 21/19/7 26/17/7
f 21/19/8 4/10/8 26/17/8
f 26/12/9 25/20/9 6/21/9
f 26/12/10 20/11/10 25/20/10
f 20/11/11 3/7/11 25/20/11
f 25/9/12 24/22/12 6/23/12
f 25/9/13 19/8/13 24/22/13
f 19/8/14 2/24/14 24/22/14
f 24/6/15 22/25/15 6/26/15
f 24/6/16 18/5/16 22/25/16
f 18/5/17 1/1/17 22/25/17
f 22/3/18 23/27/18 6/28/18
f 22/3/19 17/2/19 23/27/19
f 17/29/20 5/13/20 23/30/20
f 8/31/21 21/19/21 5/32/21
f 8/31/22 15/33/22 21/19/22
f 15/33/23 4/10/23 21/19/23
f 16/34/24 20/11/24 4/10/24
f 16/34/25 13/35/25 20/11/25
f 13/35/26 3/7/26 20/11/26
f 14/36/27 19/8/27 3/7/27
f 14/36/28 11/37/28 19/8/28
f 11/37/29 2/24/29 19/8/29
f 12/38/30 18/5/30 2/4/30
f 12/38/31 9/39/31 18/5/31
f 9/39/32 1/1/32 18/5/32
f 10/40/33 17/2/33 1/1/33
f 27/41/34 17/2/34 10/40/34
f 7/42/35 5/32/35 17/2/35
f 15/33/36 16/34/36 4/10/36
f 28/43/37 3/7/37 13/35/37
f 11/37/38 12/44/38 2/24/38
f 9/39/39 10/40/39 1/1/39
f 7/42/40 8/31/40 5/32/40
f 14/45/41 28/45/41 11/45/41
f 13/45/41 16/45/41 28/45/41
f 10/45/41 9/45/41 27/45/41
f 27/45/41 12/45/41 11/45/41
f 28/45/41 27/45/41 11/45/41
f 9/45/41 12/45/41 27/45/41
f 7/45/41 27/45/41 8/45/41
f 16/45/41 27/45/41 28/45/41
f 8/45/41 27/45/41 15/45/41
f 15/45/41 27/45/41 16/45/41
f 29/46/42 32/47/42 31/48/42
f 32/49/43 33/50/43 31/51/43
f 32/52/44 30/53/44 34/54/44
f 34/55/45 29/56/45 33/57/45
f 29/58/46 31/59/46 33/60/46
f 35/61/47 38/62/47 37/63/47
f 38/64/48 39/65/48 37/66/48
f 38/67/49 36/68/49 40/69/49
f 39/70/50 36/71/50 35/72/50
f 35/73/51 37/74/51 39/75/51
f 41/76/52 54/77/52 53/78/52
f 42/79/53 54/80/53 56/81/53
f 41/76/54 53/78/54 58/82/54
f 41/76/55 58/82/55 60/83/55
f 41/76/56 60/83/56 57/84/56
f 42/79/57 56/81/57 63/85/57
f 43/86/58 55/87/58 65/88/58
f 44/89/59 59/90/59 67/91/59
f 45/92/60 61/93/60 69/94/60
f 46/95/61 62/96/61 71/97/61
f 42/79/62 63/85/62 66/98/62
f 43/86/63 65/88/63 68/99/63
f 44/100/64 67/101/64 70/102/64
f 45/103/65 69/104/65 72/105/65
f 46/95/66 71/97/66 64/106/66
f 47/107/1 73/108/1 78/109/1
f 48/110/2 74/111/2 80/112/2
f 49/113/3 75/114/3 81/115/3
f 50/116/4 76/117/4 82/118/4
f 51/119/5 77/120/5 79/121/5
f 79/121/6 82/122/6 52/123/6
f 79/121/7 77/120/7 82/122/7
f 77/124/8 50/116/8 82/118/8
f 82/122/9 81/125/9 52/123/9
f 82/126/10 76/127/10 81/115/10
f 76/127/11 49/113/11 81/115/11
f 81/125/12 80/128/12 52/123/12
f 81/115/13 75/114/13 80/129/13
f 75/114/14 48/130/14 80/129/14
f 80/128/15 78/109/15 52/123/15
f 80/128/16 74/131/16 78/109/16
f 74/131/17 47/107/17 78/109/17
f 78/109/18 79/121/18 52/123/18
f 78/109/19 73/108/19 79/121/19
f 73/108/20 51/119/20 79/121/20
f 64/132/21 77/133/21 51/134/21
f 64/106/22 71/97/22 77/124/22
f 71/97/23 50/116/23 77/124/23
f 72/105/24 76/117/24 50/116/24
f 72/105/25 69/104/25 76/117/25
f 69/94/26 49/113/26 76/127/26
f 70/102/27 75/114/27 49/113/27
f 70/102/28 67/101/28 75/114/28
f 67/101/29 48/130/29 75/114/29
f 68/99/30 74/111/30 48/110/30
f 68/99/31 65/88/31 74/111/31
f 65/88/32 47/135/32 74/111/32
f 66/136/33 73/108/33 47/107/33
f 66/98/34 63/85/34 73/137/34
f 63/85/35 51/134/35 73/137/35
f 71/97/36 72/105/36 50/116/36
f 71/97/67 62/96/67 72/105/67
f 62/96/68 45/103/68 72/105/68
f 69/94/37 70/102/37 49/113/37
f 69/94/69 61/93/69 70/102/69
f 61/93/70 44/100/70 70/102/70
f 67/91/38 68/99/38 48/110/38
f 67/91/71 59/90/71 68/99/71
f 59/90/72 43/86/72 68/99/72
f 65/88/39 66/138/39 47/135/39
f 65/88/73 55/87/73 66/138/73
f 55/139/74 42/79/74 66/98/74
f 63/85/40 64/132/40 51/134/40
f 63/85/75 56/81/75 64/132/75
f 56/81/76 46/140/76 64/132/76
f 57/141/77 62/96/77 46/95/77
f 57/84/78 60/83/78 62/142/78
f 60/83/79 45/143/79 62/142/79
f 60/83/80 61/144/80 45/143/80
f 60/83/81 58/82/81 61/144/81
f 58/82/82 44/145/82 61/144/82
f 58/82/83 59/146/83 44/145/83
f 58/82/84 53/78/84 59/146/84
f 53/147/85 43/86/85 59/90/85
f 56/81/86 57/148/86 46/140/86
f 56/81/87 54/80/87 57/148/87
f 54/77/88 41/76/88 57/84/88
f 53/147/89 55/87/89 43/86/89
f 53/147/90 54/149/90 55/87/90
f 54/80/91 42/79/91 55/139/91
f 83/150/52 96/151/52 95/152/52
f 84/153/53 96/154/53 98/155/53
f 83/150/54 95/152/54 100/156/54
f 83/150/55 100/156/55 102/157/55
f 83/150/56 102/157/56 99/158/56
f 84/153/57 98/155/57 105/159/57
f 85/160/58 97/161/58 107/162/58
f 86/163/59 101/164/59 109/165/59
f 87/166/60 103/167/60 111/168/60
f 88/169/61 104/170/61 113/171/61
f 84/153/62 105/159/62 108/172/62
f 85/160/63 107/162/63 110/173/63
f 86/174/64 109/175/64 112/176/64
f 87/177/65 111/178/65 114/179/65
f 88/169/66 113/171/66 106/180/66
f 89/181/1 115/182/1 120/183/1
f 90/184/2 116/185/2 122/186/2
f 91/187/3 117/188/3 123/189/3
f 92/190/4 118/191/4 124/192/4
f 93/193/5 119/194/5 121/195/5
f 121/195/6 124/196/6 94/197/6
f 121/195/7 119/194/7 124/196/7
f 119/198/8 92/190/8 124/192/8
f 124/196/9 123/199/9 94/197/9
f 124/200/10 118/201/10 123/189/10
f 118/201/11 91/187/11 123/189/11
f 123/199/12 122/202/12 94/197/12
f 123/189/13 117/188/13 122/203/13
f 117/188/14 90/204/14 122/203/14
f 122/202/15 120/183/15 94/197/15
f 122/202/16 116/205/16 120/183/16
f 116/205/17 89/181/17 120/183/17
f 120/183/18 121/195/18 94/197/18
f 120/183/19 115/182/19 121/195/19
f 115/182/20 93/193/20 121/195/20
f 106/206/21 119/207/21 93/208/21
f 106/180/22 113/171/22 119/198/22
f 113/171/23 92/190/23 119/198/23
f 114/179/24 118/191/24 92/190/24
f 114/179/25 111/178/25 118/191/25
f 111/168/26 91/187/26 118/201/26
f 112/176/27 117/188/27 91/187/27
f 112/176/28 109/175/28 117/188/28
f 109/175/29 90/204/29 117/188/29
f 110/173/30 116/185/30 90/184/30
f 110/173/31 107/162/31 116/185/31
f 107/162/32 89/209/32 116/185/32
f 108/210/33 115/182/33 89/181/33
f 108/172/34 105/159/34 115/211/34
f 105/159/35 93/208/35 115/211/35
f 113/171/36 114/179/36 92/190/36
f 113/171/67 104/170/67 114/179/67
f 104/170/68 87/177/68 114/179/68
f 111/168/37 112/176/37 91/187/37
f 111/168/69 103/167/69 112/176/69
f 103/167/70 86/174/70 112/176/70
f 109/165/38 110/173/38 90/184/38
f 109/165/71 101/164/71 110/173/71
f 101/164/72 85/160/72 110/173/72
f 107/162/39 108/212/39 89/209/39
f 107/162/73 97/161/73 108/212/73
f 97/213/74 84/153/74 108/172/74
f 105/159/40 106/206/40 93/208/40
f 105/159/75 98/155/75 106/206/75
f 98/155/76 88/214/76 106/206/76
f 99/215/77 104/170/77 88/169/77
f 99/158/78 102/157/78 104/216/78
f 102/157/79 87/217/79 104/216/79
f 102/157/80 103/218/80 87/217/80
f 102/157/81 100/156/81 103/218/81
f 100/156/82 86/219/82 103/218/82
f 100/156/83 101/220/83 86/219/83
f 100/156/84 95/152/84 101/220/84
f 95/221/85 85/160/85 101/164/85
f 98/155/86 99/222/86 88/214/86
f 98/155/87 96/154/87 99/222/87
f 96/151/88 83/150/88 99/158/88
f 95/221/89 97/161/89 85/160/89
f 95/221/90 96/223/90 97/161/90
f 96/154/91 84/153/91 97/213/91
f 27/41/34 7/42/34 17/2/34
f 28/43/37 14/36/37 3/7/37
f 29/46/42 30/224/42 32/47/42
f 32/49/43 34/225/43 33/50/43
f 34/55/45 30/226/45 29/56/45
f 35/61/47 36/227/47 38/62/47
f 38/64/48 40/228/48 39/65/48
f 39/70/50 40/229/50 36/71/50
