# Blender 4.4.3
# www.blender.org
mtllib Alien Tree Base.mtl
o Cube
v 0.554525 1.883035 -0.600803
v 0.554525 0.005079 -0.600803
v 0.554525 1.883035 0.508248
v 0.554525 0.005079 0.508248
v -0.554525 1.883035 -0.600803
v -0.554525 0.005079 -0.600803
v -0.554525 1.883035 0.508248
v -0.554525 0.005079 0.508248
v 0.246697 4.368608 0.200420
v -0.246697 4.368608 0.200420
v 0.246697 4.368608 -0.292975
v -0.246697 4.368608 -0.292975
vn -0.9924 0.1229 -0.0000
vn -0.0000 -0.0000 1.0000
vn -1.0000 -0.0000 -0.0000
vn -0.0000 -1.0000 -0.0000
vn 1.0000 -0.0000 -0.0000
vn -0.0000 -0.0000 -1.0000
vn -0.0000 1.0000 -0.0000
vn 0.9924 0.1229 -0.0000
vn -0.0000 0.1229 -0.9924
vn -0.0000 0.1229 0.9924
vt 0.166667 0.483002
vt 0.269872 0.000000
vt 0.309524 0.483002
vt 0.452381 0.845164
vt 0.309524 0.845164
vt 0.166667 0.845164
vt 0.833333 0.321429
vt 0.738095 0.000000
vt 0.833333 0.000000
vt 0.452381 0.483002
vt 0.595238 0.845164
vt 0.595238 0.483002
vt 0.738095 0.845164
vt 0.780465 0.464426
vt 0.738095 0.321429
vt 0.780465 0.321429
vt 0.555587 0.000000
vt 0.698444 0.000000
vt 0.738095 0.483002
vt 0.412730 0.000000
vt 0.206318 0.000000
vt 0.738095 0.321429
vt 0.738095 0.464426
vt 0.492032 0.000000
vt 0.634889 0.000000
vt 0.349175 0.000000
s 0
usemtl Material.003
f 7/1/1 12/2/1 5/3/1
f 3/3/2 8/4/2 4/5/2
f 7/1/3 6/5/3 8/6/3
f 2/7/4 8/8/4 6/9/4
f 1/10/5 4/11/5 2/4/5
f 5/12/6 2/13/6 6/11/6
f 12/14/7 9/15/7 11/16/7
f 1/10/8 9/17/8 3/12/8
f 5/12/9 11/18/9 1/19/9
f 3/3/10 10/20/10 7/10/10
f 7/1/1 10/21/1 12/2/1
f 3/3/2 7/10/2 8/4/2
f 7/1/3 5/3/3 6/5/3
f 2/7/4 4/22/4 8/8/4
f 1/10/5 3/12/5 4/11/5
f 5/12/6 1/19/6 2/13/6
f 12/14/7 10/23/7 9/15/7
f 1/10/8 11/24/8 9/17/8
f 5/12/9 12/25/9 11/18/9
f 3/3/10 9/26/10 10/20/10
