# Blender 4.0.2
# www.blender.org
mtllib Alien Tree.mtl
o Cube
v 1.000000 3.395211 -1.046278
v 1.000000 0.008610 -1.046278
v 1.000000 3.395211 0.953722
v 1.000000 0.008610 0.953722
v -1.000000 3.395211 -1.046278
v -1.000000 0.008610 -1.046278
v -1.000000 3.395211 0.953722
v -1.000000 0.008610 0.953722
v 0.444880 7.877556 0.398602
v -0.444880 7.877556 0.398602
v 0.444880 7.877556 -0.491157
v -0.444880 7.877556 -0.491157
v -0.014722 7.117332 -0.075199
v 2.822185 9.302371 1.985910
v -1.098303 9.302369 3.259777
v -3.521325 9.302386 -0.075199
v -1.098303 9.302369 -3.410174
v 2.822185 9.302371 -2.136308
v 1.068859 12.837919 3.259777
v -2.851629 12.837917 1.985910
v -2.851629 12.837917 -2.136308
v 1.068859 12.837919 -3.410174
v 3.491881 12.837903 -0.075199
v -0.014722 15.022956 -0.075199
v -0.651630 7.707667 1.885036
v 1.652758 7.707669 1.136282
v 1.015857 8.992002 3.096536
v 3.320248 8.992010 -0.075199
v 1.652758 7.707669 -1.286680
v -2.075849 7.707678 -0.075199
v -2.712772 8.992008 1.885042
v -0.651630 7.707667 -2.035433
v -2.712772 8.992008 -2.035439
v 1.015857 8.992002 -3.246933
v 3.713906 11.070145 1.136287
v 3.713906 11.070145 -1.286685
v -0.014722 11.070145 3.845307
v 2.289695 11.070145 3.096556
v -3.743350 11.070145 1.136287
v -2.319139 11.070145 3.096556
v -2.319139 11.070145 -3.246953
v -3.743350 11.070145 -1.286685
v 2.289695 11.070145 -3.246953
v -0.014722 11.070145 -3.995704
v 2.683329 13.148280 1.885042
v -1.045301 13.148286 3.096536
v -3.349692 13.148278 -0.075199
v -1.045301 13.148286 -3.246933
v 2.683329 13.148280 -2.035439
v 0.622186 14.432622 1.885036
v 2.046405 14.432611 -0.075199
v -1.682202 14.432620 1.136282
v -1.682202 14.432620 -1.286680
v 0.622186 14.432622 -2.035433
vn -0.9924 0.1229 -0.0000
vn -0.0000 -0.0000 1.0000
vn -1.0000 -0.0000 -0.0000
vn -0.0000 -1.0000 -0.0000
vn 1.0000 -0.0000 -0.0000
vn -0.0000 -0.0000 -1.0000
vn -0.0000 1.0000 -0.0000
vn 0.9924 0.1229 -0.0000
vn -0.0000 0.1229 -0.9924
vn -0.0000 0.1229 0.9924
vn 0.1031 -0.9427 0.3174
vn 0.7027 -0.6586 0.2690
vn -0.2700 -0.9427 0.1962
vn -0.2700 -0.9427 -0.1962
vn 0.1031 -0.9427 -0.3174
vn 0.9058 -0.3280 0.2683
vn 0.0248 -0.3280 0.9444
vn -0.8905 -0.3280 0.3154
vn -0.5751 -0.3280 -0.7494
vn 0.5351 -0.3280 -0.7786
vn 0.8027 -0.1246 0.5832
vn -0.3066 -0.1246 0.9436
vn -0.9922 -0.1246 -0.0000
vn -0.3066 -0.1246 -0.9436
vn 0.8027 -0.1246 -0.5832
vn 0.4104 0.6586 0.6307
vn -0.4730 0.6586 0.5852
vn -0.7027 0.6586 -0.2690
vn 0.0387 0.6586 -0.7515
vn 0.7266 0.6586 -0.1954
vn 0.2700 0.9427 -0.1962
vn 0.4937 0.7922 -0.3587
vn 0.4104 0.6586 -0.6307
vn -0.1031 0.9427 -0.3174
vn -0.1886 0.7922 -0.5803
vn -0.4730 0.6586 -0.5852
vn -0.3337 0.9427 -0.0000
vn -0.6102 0.7922 -0.0000
vn -0.7027 0.6586 0.2690
vn -0.1031 0.9427 0.3174
vn -0.1886 0.7922 0.5803
vn 0.0387 0.6586 0.7515
vn 0.2700 0.9427 0.1962
vn 0.4937 0.7922 0.3587
vn 0.7266 0.6586 0.1954
vn 0.8905 0.3280 -0.3154
vn 0.7949 0.1861 -0.5775
vn 0.5751 0.3280 -0.7494
vn -0.0248 0.3280 -0.9444
vn -0.3036 0.1861 -0.9344
vn -0.5351 0.3280 -0.7786
vn -0.9058 0.3280 -0.2683
vn -0.9825 0.1861 -0.0000
vn -0.9058 0.3280 0.2683
vn -0.5351 0.3280 0.7786
vn -0.3036 0.1861 0.9344
vn -0.0248 0.3280 0.9444
vn 0.5751 0.3280 0.7494
vn 0.7949 0.1861 0.5775
vn 0.8905 0.3280 0.3154
vn 0.3066 0.1246 -0.9436
vn 0.3036 -0.1861 -0.9344
vn 0.0248 -0.3280 -0.9444
vn -0.8027 0.1246 -0.5832
vn -0.7949 -0.1861 -0.5775
vn -0.8905 -0.3280 -0.3154
vn -0.8027 0.1246 0.5832
vn -0.7949 -0.1861 0.5775
vn -0.5751 -0.3280 0.7494
vn 0.3066 0.1246 0.9436
vn 0.3036 -0.1861 0.9344
vn 0.5351 -0.3280 0.7786
vn 0.9922 0.1246 -0.0000
vn 0.9825 -0.1861 -0.0000
vn 0.9058 -0.3280 -0.2683
vn 0.4730 -0.6586 -0.5852
vn 0.1886 -0.7922 -0.5803
vn -0.0387 -0.6586 -0.7515
vn -0.4104 -0.6586 -0.6307
vn -0.4937 -0.7922 -0.3587
vn -0.7266 -0.6586 -0.1954
vn -0.7266 -0.6586 0.1954
vn -0.4937 -0.7922 0.3587
vn -0.4104 -0.6586 0.6307
vn 0.7027 -0.6586 -0.2690
vn 0.6102 -0.7922 -0.0000
vn 0.3337 -0.9427 -0.0000
vn -0.0387 -0.6586 0.7515
vn 0.1886 -0.7922 0.5803
vn 0.4730 -0.6586 0.5852
vt 0.000000 0.455899
vt 0.146122 0.000000
vt 0.202261 0.455899
vt 0.404523 0.797739
vt 0.202261 0.797739
vt 0.000000 0.797739
vt 0.202261 1.000000
vt 0.000000 0.797739
vt 0.202261 0.797739
vt 0.404523 0.455899
vt 0.606784 0.797739
vt 0.606784 0.455899
vt 0.809046 0.797739
vt 0.292243 0.887721
vt 0.202261 0.797739
vt 0.292243 0.797739
vt 0.550644 0.000000
vt 0.752906 0.000000
vt 0.809046 0.455899
vt 0.348383 0.000000
vt 0.181819 0.000000
vt 0.227273 0.078731
vt 0.136365 0.078731
vt 0.272728 0.157461
vt 0.318182 0.078731
vt 0.363637 0.157461
vt 0.909091 0.000000
vt 0.954545 0.078731
vt 0.863636 0.078731
vt 0.727273 0.000000
vt 0.772727 0.078731
vt 0.681818 0.078731
vt 0.545455 0.000000
vt 0.590909 0.078731
vt 0.500000 0.078731
vt 0.318182 0.236191
vt 0.090910 0.157461
vt 0.181819 0.157461
vt 0.136365 0.236191
vt 0.818182 0.157461
vt 0.909091 0.157461
vt 0.863636 0.236191
vt 0.636364 0.157461
vt 0.727273 0.157461
vt 0.681818 0.236191
vt 0.454546 0.157461
vt 0.545455 0.157461
vt 0.500000 0.236191
vt 0.227273 0.236191
vt 0.045455 0.236191
vt 0.772727 0.236191
vt 0.590909 0.236191
vt 0.409092 0.236191
vt 0.181819 0.314921
vt 0.272728 0.314921
vt 0.227273 0.393651
vt 0.000000 0.314921
vt 0.090910 0.314921
vt 0.045455 0.393651
vt 0.727273 0.314921
vt 0.818182 0.314921
vt 0.772727 0.393651
vt 0.545455 0.314921
vt 0.636364 0.314921
vt 0.590909 0.393651
vt 0.363637 0.314921
vt 0.454546 0.314921
vt 0.409092 0.393651
vt 0.500000 0.393651
vt 0.454546 0.472382
vt 0.681818 0.393651
vt 0.636364 0.472382
vt 0.863636 0.393651
vt 0.818182 0.472382
vt 0.909091 0.314921
vt 0.136365 0.393651
vt 0.090910 0.472382
vt 0.318182 0.393651
vt 0.272728 0.472382
vt 0.954545 0.236191
vt 1.000000 0.157461
vt 0.409092 0.078731
vt 0.363637 0.000000
vt 0.056140 0.000000
vt 0.000000 1.000000
vt 0.202261 0.887721
vt 0.460662 0.000000
vt 0.662924 0.000000
vt 0.258401 0.000000
s 0
usemtl Material.003
f 7/1/1 12/2/1 5/3/1
f 3/3/2 8/4/2 4/5/2
f 7/1/3 6/5/3 8/6/3
f 2/7/4 8/8/4 6/9/4
f 1/10/5 4/11/5 2/4/5
f 5/12/6 2/13/6 6/11/6
f 12/14/7 9/15/7 11/16/7
f 1/10/8 9/17/8 3/12/8
f 5/12/9 11/18/9 1/19/9
f 3/3/10 10/20/10 7/10/10
f 13/21/11 26/22/11 25/23/11
f 14/24/12 26/25/12 28/26/12
f 13/27/13 25/28/13 30/29/13
f 13/30/14 30/31/14 32/32/14
f 13/33/15 32/34/15 29/35/15
f 14/24/16 28/26/16 35/36/16
f 15/37/17 27/38/17 37/39/17
f 16/40/18 31/41/18 39/42/18
f 17/43/19 33/44/19 41/45/19
f 18/46/20 34/47/20 43/48/20
f 14/24/21 35/36/21 38/49/21
f 15/37/22 37/39/22 40/50/22
f 16/40/23 39/42/23 42/51/23
f 17/43/24 41/45/24 44/52/24
f 18/46/25 43/48/25 36/53/25
f 19/54/26 45/55/26 50/56/26
f 20/57/27 46/58/27 52/59/27
f 21/60/28 47/61/28 53/62/28
f 22/63/29 48/64/29 54/65/29
f 23/66/30 49/67/30 51/68/30
f 51/68/31 54/69/31 24/70/31
f 51/68/32 49/67/32 54/69/32
f 49/67/33 22/63/33 54/69/33
f 54/65/34 53/71/34 24/72/34
f 54/65/35 48/64/35 53/71/35
f 48/64/36 21/60/36 53/71/36
f 53/62/37 52/73/37 24/74/37
f 53/62/38 47/61/38 52/73/38
f 47/61/39 20/75/39 52/73/39
f 52/59/40 50/76/40 24/77/40
f 52/59/41 46/58/41 50/76/41
f 46/58/42 19/54/42 50/76/42
f 50/56/43 51/78/43 24/79/43
f 50/56/44 45/55/44 51/78/44
f 45/55/45 23/66/45 51/78/45
f 36/53/46 49/67/46 23/66/46
f 36/53/47 43/48/47 49/67/47
f 43/48/48 22/63/48 49/67/48
f 44/52/49 48/64/49 22/63/49
f 44/52/50 41/45/50 48/64/50
f 41/45/51 21/60/51 48/64/51
f 42/51/52 47/61/52 21/60/52
f 42/51/53 39/42/53 47/61/53
f 39/42/54 20/75/54 47/61/54
f 40/50/55 46/58/55 20/57/55
f 40/50/56 37/39/56 46/58/56
f 37/39/57 19/54/57 46/58/57
f 38/49/58 45/55/58 19/54/58
f 38/49/59 35/36/59 45/55/59
f 35/36/60 23/66/60 45/55/60
f 43/48/61 44/52/61 22/63/61
f 43/48/62 34/47/62 44/52/62
f 34/47/63 17/43/63 44/52/63
f 41/45/64 42/51/64 21/60/64
f 41/45/65 33/44/65 42/51/65
f 33/44/66 16/40/66 42/51/66
f 39/42/67 40/80/67 20/75/67
f 39/42/68 31/41/68 40/80/68
f 31/41/69 15/81/69 40/80/69
f 37/39/70 38/49/70 19/54/70
f 37/39/71 27/38/71 38/49/71
f 27/38/72 14/24/72 38/49/72
f 35/36/73 36/53/73 23/66/73
f 35/36/74 28/26/74 36/53/74
f 28/26/75 18/46/75 36/53/75
f 29/35/76 34/47/76 18/46/76
f 29/35/77 32/34/77 34/47/77
f 32/34/78 17/43/78 34/47/78
f 32/32/79 33/44/79 17/43/79
f 32/32/80 30/31/80 33/44/80
f 30/31/81 16/40/81 33/44/81
f 30/29/82 31/41/82 16/40/82
f 30/29/83 25/28/83 31/41/83
f 25/28/84 15/81/84 31/41/84
f 28/26/85 29/82/85 18/46/85
f 28/26/86 26/25/86 29/82/86
f 26/25/87 13/83/87 29/82/87
f 25/23/88 27/38/88 15/37/88
f 25/23/89 26/22/89 27/38/89
f 26/22/90 14/24/90 27/38/90
f 7/1/1 10/84/1 12/2/1
f 3/3/2 7/10/2 8/4/2
f 7/1/3 5/3/3 6/5/3
f 2/7/4 4/85/4 8/8/4
f 1/10/5 3/12/5 4/11/5
f 5/12/6 1/19/6 2/13/6
f 12/14/7 10/86/7 9/15/7
f 1/10/8 11/87/8 9/17/8
f 5/12/9 12/88/9 11/18/9
f 3/3/10 9/89/10 10/20/10
