# Blender 4.4.3
# www.blender.org
mtllib tower1.mtl
o Cube
v -16.016764 2.714945 -23.922359
v -0.035084 2.714945 -23.922359
v -0.035084 -2.376089 -23.922359
v -16.016764 -2.376089 -23.922359
v 1.015332 29.208611 15.253955
v -0.651089 29.739456 12.451870
v -15.400759 29.739456 12.451870
v -17.067181 29.208611 15.253955
v 1.015332 29.208611 -15.151787
v -0.651089 29.739456 -12.349700
v -15.400759 29.739456 -12.349700
v -17.067181 29.208611 -15.151787
v -0.651089 48.299053 12.451870
v -2.506431 48.890079 9.332114
v -13.545417 48.890079 9.332114
v -15.400759 48.299053 12.451870
v -0.651089 48.299053 -12.349700
v -2.506431 48.890079 -9.229945
v -13.545417 48.890079 -9.229945
v -15.400759 48.299053 -12.349700
v -12.379843 63.299294 -7.270031
v -13.545417 62.927994 -9.229945
v -3.672005 63.299294 -7.270031
v -2.506431 62.927994 -9.229945
v -12.379843 63.299294 7.372200
v -13.545417 62.927994 9.332114
v -3.672005 63.299294 7.372200
v -2.506431 62.927994 9.332114
v -12.379843 73.776955 7.372200
v -12.379843 73.776955 -7.270031
v -3.672005 73.776955 -7.270031
v -3.672005 73.776955 7.372200
v -10.239234 74.967934 1.085602
v -11.369242 74.098885 5.672874
v -8.641159 74.967934 3.772766
v -10.239234 74.967934 -0.983431
v -8.641159 74.967934 -3.670596
v -11.369242 74.098885 -5.570704
v -7.410690 74.967934 -3.670596
v -7.410690 74.967934 3.772766
v -9.197248 91.725708 0.624037
v -8.739961 91.857765 1.969534
v -8.641159 92.075363 1.085602
v -9.579744 91.760544 -0.724139
v -8.641159 92.075363 -0.983431
v -8.567165 91.823975 -2.157126
v -7.781447 91.814507 -2.064360
v -7.410690 92.075363 -0.983431
v -7.541056 91.838074 2.182978
v -7.410690 92.075363 1.085602
v -5.370988 74.585861 -1.668133
v -4.976886 74.202911 -3.338810
v -5.699120 74.607681 2.899255
v -5.890863 74.240288 4.926513
v -6.496616 91.395676 0.116040
v -6.694938 91.819839 -1.711324
v -6.894378 91.383789 0.012301
v -6.848287 91.805969 1.448679
v 1.015332 3.514479 15.253955
v -0.444125 2.584647 15.253955
v -0.444125 -2.245790 15.253955
v 1.015332 -2.710710 12.799880
v -15.607723 2.584647 15.253955
v -17.067181 3.514479 15.253955
v -15.607723 -2.245790 15.253955
v -17.067181 -2.710710 12.799880
v -0.035084 2.714945 -15.151787
v 1.015332 3.384177 -15.151787
v -0.035084 -2.376089 -15.151787
v 1.015332 -2.710710 -13.385512
v -17.067181 3.384177 -15.151787
v -16.016764 2.714945 -15.151787
v -17.067181 -2.710710 -13.385512
v -16.016764 -2.376089 -15.151787
v -15.607723 -2.245790 21.883844
v -15.607723 2.584647 21.883844
v -0.444125 2.584647 21.883844
v -0.444125 -2.245790 21.883844
v -17.056662 29.031206 -15.148485
v -17.610699 28.325424 -16.562002
v -17.610699 2.500989 -16.562002
v -18.184341 29.163950 16.383137
v -18.184341 3.469818 16.383137
v 3.054524 4.951298 -5.988464
v 1.024868 4.011871 -4.018415
v 2.331944 28.518152 17.127338
v 2.331944 2.824019 17.127338
v 1.846335 27.172222 -16.662115
v 1.846335 1.347788 -16.662115
v -16.541477 26.277008 -14.761692
v -16.541477 44.836605 -14.761692
v 0.351545 25.752058 -14.950386
v 0.351545 44.311653 -14.950386
v 0.994185 26.650240 14.426502
v 0.994185 45.209839 14.426502
v -16.766960 25.982054 15.037824
v -16.766960 44.541653 15.037824
v 2.008576 29.367632 14.318174
v 3.325187 28.677174 16.191559
v 19.180717 -4.197679 34.587830
v 20.173962 -4.038657 33.652050
v -17.967402 29.094593 14.042539
v -19.084564 29.049932 15.171721
v -37.120815 -1.184063 30.652220
v -38.021038 -1.298080 29.440804
v -18.420761 29.283251 -13.669100
v -18.964281 28.400064 -15.079314
v -28.314877 -4.798797 -35.504665
v -29.668461 -4.724156 -34.021976
v 1.894453 29.668272 -13.235028
v 2.725456 27.631884 -14.745357
v 14.532177 -5.384146 -35.046051
v 15.411299 -4.924485 -33.129295
vn -0.0000 -1.0000 -0.0000
vn -0.0000 -0.0000 -1.0000
vn -1.0000 -0.0000 -0.0000
vn -0.0000 -0.0000 1.0000
vn 1.0000 -0.0000 -0.0000
vn -0.0000 0.9825 0.1861
vn 0.3035 0.9528 -0.0000
vn -0.3035 0.9528 -0.0000
vn -0.0000 0.9825 -0.1861
vn -0.1727 0.1036 0.9795
vn -0.0000 0.0949 -0.9955
vn 0.3103 0.9506 -0.0000
vn -0.0000 1.0000 -0.0000
vn -0.9613 0.0335 0.2736
vn 0.7271 0.0700 0.6829
vn -0.2179 0.9673 0.1296
vn -0.2179 0.9673 -0.1296
vn -0.6014 0.7888 0.1270
vn -0.3638 0.9059 -0.2170
vn 0.3553 0.9345 0.0213
vn -0.6096 0.7927 -0.0000
vn -0.2537 0.1465 0.9561
vn -0.5323 0.8466 -0.0000
vn 0.0362 0.9776 -0.2071
vn -0.0000 0.9774 0.2113
vn 0.2922 0.9270 0.2352
vn -0.8575 0.0674 0.5100
vn -0.8166 0.0552 -0.5746
vn 0.2120 0.7372 -0.6416
vn -0.0000 0.8458 0.5334
vn 0.0796 0.9624 -0.2596
vn 0.9644 -0.2606 0.0457
vn 0.9930 0.0761 -0.0901
vn 0.9899 0.0894 0.1098
vn 0.8061 0.5892 0.0551
vn 0.1672 0.1069 -0.9801
vn -0.8595 -0.0000 0.5111
vn 0.2275 -0.3571 0.9059
vn -0.0000 -0.9825 0.1861
vn -0.0000 -0.9825 -0.1861
vn 0.1746 -0.2741 -0.9457
vn -0.1746 -0.2741 -0.9457
vn 0.9331 -0.0000 -0.3596
vn 0.7109 -0.0000 0.7033
vn -0.7369 -0.4076 0.5393
vn 0.8182 -0.0000 -0.5750
vn 0.8761 -0.0000 0.4821
vn 0.9040 -0.0000 -0.4275
vn -0.9331 -0.0000 -0.3597
vn -0.7683 -0.0000 0.6401
vn 0.8842 -0.0000 0.4671
vn -0.1075 -0.9550 -0.2764
vn -0.4993 -0.5939 -0.6309
vn -0.0769 0.9964 -0.0366
vn -0.6596 0.6148 0.4323
vn 0.3744 -0.8439 0.3842
vn 0.6117 -0.5323 0.5852
vn -0.6613 -0.6019 0.4477
vn -0.7124 -0.5344 0.4549
vn -0.0000 0.0938 0.9956
vn 0.1178 0.0883 -0.9891
vn 0.0192 0.9947 -0.1014
vn 0.1872 0.9822 0.0163
vn -0.9981 0.0621 -0.0000
vn -0.5586 0.1317 0.8189
vn 0.4320 0.9019 -0.0000
vn 0.9957 0.0591 0.0713
vn -0.2896 0.9512 0.1067
vn -0.0000 0.9721 -0.2346
vn -0.0261 0.9714 0.2362
vn -0.9473 0.0285 0.3191
vn -0.8587 0.0416 -0.5107
vn -0.0000 -0.3979 -0.9174
vn 0.0402 0.8856 0.4627
vn -0.0901 0.9679 0.2345
vn 0.9742 0.0754 0.2125
vn 0.9979 0.0454 -0.0454
vn 0.9904 0.0853 0.1091
vn 0.3071 0.0970 -0.9467
vn -0.2275 -0.3571 0.9059
vn 0.8595 -0.0000 0.5111
vn 0.8595 -0.0000 -0.5111
vn -0.8595 -0.0000 -0.5111
vn 0.3678 0.6332 0.6809
vt 0.375000 0.514523
vt 0.125000 0.729822
vt 0.125000 0.514523
vt 0.610477 0.264523
vt 0.389523 0.485478
vt 0.389523 0.264523
vt 0.625000 0.000000
vt 0.625000 0.250000
vt 0.395178 0.979822
vt 0.604822 0.979822
vt 0.625000 0.500000
vt 0.625000 0.750000
vt 0.625000 1.000000
vt 0.851961 0.726961
vt 0.851961 0.523039
vt 0.851961 0.523039
vt 0.648039 0.726961
vt 0.648039 0.523039
vt 0.875000 0.750000
vt 0.875000 0.500000
vt 0.375000 0.020178
vt 0.639523 0.250000
vt 0.375000 0.235477
vt 0.826310 0.548690
vt 0.673690 0.548690
vt 0.648039 0.523039
vt 0.826310 0.701310
vt 0.673690 0.701310
vt 0.810195 0.564805
vt 0.689805 0.564805
vt 0.689805 0.564805
vt 0.810195 0.685195
vt 0.689805 0.685195
vt 0.810195 0.685195
vt 0.810195 0.564805
vt 0.758506 0.655600
vt 0.741494 0.655600
vt 0.758506 0.655600
vt 0.758506 0.594400
vt 0.741494 0.594400
vt 0.741494 0.594400
vt 0.796223 0.578777
vt 0.796223 0.671223
vt 0.708051 0.597119
vt 0.758506 0.616494
vt 0.741494 0.633506
vt 0.741494 0.616494
vt 0.780600 0.616494
vt 0.780600 0.633506
vt 0.780600 0.616494
vt 0.741494 0.655600
vt 0.729871 0.643859
vt 0.780600 0.633506
vt 0.796223 0.671223
vt 0.758506 0.633506
vt 0.758506 0.594400
vt 0.728583 0.639400
vt 0.728606 0.610509
vt 0.719400 0.648417
vt 0.719400 0.629150
vt 0.719400 0.621008
vt 0.720482 0.665086
vt 0.731530 0.639400
vt 0.707951 0.591680
vt 0.720619 0.663101
vt 0.731598 0.610509
vt 0.719400 0.610866
vt 0.729543 0.606428
vt 0.721918 0.661227
vt 0.719400 0.597636
vt 0.716959 0.598112
vt 0.375000 1.000000
vt 0.604822 0.770178
vt 0.375000 0.729822
vt 0.645178 0.750000
vt 0.375000 0.750000
vt 0.375000 0.250000
vt 0.375000 0.500000
vt 0.610477 0.485477
vt 0.639523 0.500000
vt 0.395178 0.770178
vt 0.645178 0.000000
vt 0.707784 0.590444
vt 0.715338 0.665156
vt 0.719400 0.661794
s 0
usemtl Material
f 70/1/1 66/2/1 73/3/1
f 1/4/2 3/5/2 4/6/2
f 64/7/3 12/8/3 71/8/3
f 65/9/3 76/10/3 63/10/3
f 71/8/2 9/11/2 68/11/2
f 59/12/4 8/13/4 64/13/4
f 7/14/3 20/15/3 11/16/3
f 59/12/5 9/11/5 5/12/5
f 7/14/6 5/12/6 6/17/6
f 6/17/7 9/11/7 10/18/7
f 11/16/8 8/19/8 7/14/8
f 10/18/9 12/20/9 11/16/9
f 66/21/3 71/22/3 73/23/3
f 10/18/5 13/17/5 6/17/5
f 19/24/2 24/25/2 18/25/2
f 11/16/2 17/26/2 10/18/2
f 6/17/4 16/14/4 7/14/4
f 15/27/6 13/17/6 14/28/6
f 14/28/7 17/18/7 18/25/7
f 19/24/8 16/14/8 15/27/8
f 18/25/9 20/16/9 19/24/9
f 18/25/5 28/28/5 14/28/5
f 21/29/2 31/30/2 23/31/2
f 14/28/4 26/27/4 15/27/4
f 21/29/8 26/27/8 25/32/8
f 23/31/9 22/24/9 21/29/9
f 27/33/6 26/27/6 28/28/6
f 27/33/7 24/25/7 23/31/7
f 15/27/3 22/24/3 19/24/3
f 27/33/4 29/34/4 25/32/4
f 25/32/3 30/35/3 21/29/3
f 23/31/5 32/33/5 27/33/5
f 35/36/10 49/37/10 42/38/10
f 37/39/11 47/40/11 39/41/11
f 38/42/8 29/32/8 34/43/8
f 38/42/9 31/30/9 30/29/9
f 52/44/12 32/33/12 31/31/12
f 45/45/13 50/46/13 48/47/13
f 36/48/14 41/49/14 44/50/14
f 40/51/15 58/52/15 49/37/15
f 33/53/16 34/54/16 35/36/16
f 36/48/17 37/39/17 38/42/17
f 41/49/18 42/38/18 43/55/18
f 44/50/19 45/45/19 46/56/19
f 48/47/20 58/57/20 56/58/20
f 33/53/21 38/42/21 34/43/21
f 53/59/22 55/60/22 57/61/22
f 54/62/6 29/34/6 32/33/6
f 45/45/23 41/49/23 43/55/23
f 45/45/24 47/40/24 46/56/24
f 43/55/25 49/37/25 50/46/25
f 49/37/26 58/63/26 50/46/26
f 35/36/27 41/49/27 33/53/27
f 37/39/28 44/50/28 46/56/28
f 37/39/29 52/64/29 38/42/29
f 35/36/30 54/65/30 40/51/30
f 47/40/31 48/47/31 56/66/31
f 57/61/32 56/58/32 58/57/32
f 51/67/33 56/68/33 55/60/33
f 57/61/34 54/69/34 53/59/34
f 53/59/35 52/70/35 51/67/35
f 39/41/36 56/68/36 52/71/36
f 63/10/37 66/72/37 65/9/37
f 60/73/38 62/74/38 59/75/38
f 64/13/4 60/73/4 59/12/4
f 62/76/39 65/9/39 66/72/39
f 74/6/1 3/5/1 69/5/1
f 73/77/40 69/5/40 70/78/40
f 70/1/41 67/79/41 68/80/41
f 72/4/42 73/23/42 71/22/42
f 68/11/2 72/4/2 71/8/2
f 68/80/5 62/74/5 70/1/5
f 72/4/3 4/6/3 74/6/3
f 69/5/5 2/79/5 67/79/5
f 67/79/13 1/4/13 72/4/13
f 77/73/4 75/9/4 78/81/4
f 61/81/1 75/9/1 65/9/1
f 63/10/13 77/73/13 60/73/13
f 60/73/5 78/81/5 61/81/5
f 71/8/43 80/8/43 12/8/43
f 64/7/44 82/7/44 83/7/44
f 80/8/45 84/8/45 12/8/45
f 59/12/46 86/12/46 87/12/46
f 68/11/47 88/11/47 9/11/47
f 11/16/48 91/15/48 20/15/48
f 10/18/49 93/18/49 92/18/49
f 6/17/50 95/17/50 13/17/50
f 7/14/51 97/14/51 96/14/51
f 5/12/52 99/12/52 86/12/52
f 86/12/53 101/12/53 100/12/53
f 82/7/54 102/7/54 103/7/54
f 103/7/55 104/7/55 82/7/55
f 12/8/56 107/8/56 80/8/56
f 80/8/57 109/8/57 108/8/57
f 9/11/58 111/11/58 110/11/58
f 88/11/59 113/11/59 111/11/59
f 70/1/1 62/74/1 66/2/1
f 1/4/2 2/79/2 3/5/2
f 64/7/3 8/7/3 12/8/3
f 65/9/3 75/9/3 76/10/3
f 71/8/2 12/8/2 9/11/2
f 59/12/4 5/12/4 8/13/4
f 7/14/3 16/14/3 20/15/3
f 59/12/5 68/11/5 9/11/5
f 7/14/6 8/19/6 5/12/6
f 6/17/7 5/12/7 9/11/7
f 11/16/8 12/20/8 8/19/8
f 10/18/9 9/11/9 12/20/9
f 66/21/3 64/82/3 71/22/3
f 10/18/5 17/18/5 13/17/5
f 19/24/2 22/24/2 24/25/2
f 11/16/2 20/16/2 17/26/2
f 6/17/4 13/17/4 16/14/4
f 15/27/6 16/14/6 13/17/6
f 14/28/7 13/17/7 17/18/7
f 19/24/8 20/15/8 16/14/8
f 18/25/9 17/26/9 20/16/9
f 18/25/5 24/25/5 28/28/5
f 21/29/2 30/29/2 31/30/2
f 14/28/4 28/28/4 26/27/4
f 21/29/8 22/24/8 26/27/8
f 23/31/9 24/25/9 22/24/9
f 27/33/6 25/32/6 26/27/6
f 27/33/7 28/28/7 24/25/7
f 15/27/3 26/27/3 22/24/3
f 27/33/4 32/33/4 29/34/4
f 25/32/3 29/32/3 30/35/3
f 23/31/5 31/31/5 32/33/5
f 35/36/60 40/51/60 49/37/60
f 37/39/61 46/56/61 47/40/61
f 38/42/8 30/35/8 29/32/8
f 38/42/62 52/83/62 31/30/62
f 52/44/63 54/84/63 32/33/63
f 45/45/13 43/55/13 50/46/13
f 36/48/64 33/53/64 41/49/64
f 40/51/65 54/69/65 58/52/65
f 48/47/66 50/46/66 58/57/66
f 33/53/21 36/48/21 38/42/21
f 53/59/67 51/67/67 55/60/67
f 54/62/6 34/54/6 29/34/6
f 45/45/68 44/50/68 41/49/68
f 45/45/69 48/47/69 47/40/69
f 43/55/70 42/38/70 49/37/70
f 35/36/71 42/38/71 41/49/71
f 37/39/72 36/48/72 44/50/72
f 37/39/73 39/41/73 52/64/73
f 35/36/74 34/54/74 54/65/74
f 57/61/75 55/60/75 56/58/75
f 51/67/76 52/71/76 56/68/76
f 57/61/77 58/52/77 54/69/77
f 53/59/78 54/85/78 52/70/78
f 39/41/79 47/40/79 56/68/79
f 63/10/80 64/13/80 66/72/80
f 60/73/81 61/81/81 62/74/81
f 64/13/4 63/10/4 60/73/4
f 62/76/39 61/81/39 65/9/39
f 74/6/1 4/6/1 3/5/1
f 73/77/40 74/6/40 69/5/40
f 70/1/82 69/5/82 67/79/82
f 72/4/83 74/6/83 73/23/83
f 68/11/2 67/79/2 72/4/2
f 68/80/5 59/75/5 62/74/5
f 72/4/3 1/4/3 4/6/3
f 69/5/5 3/5/5 2/79/5
f 67/79/13 2/79/13 1/4/13
f 77/73/4 76/10/4 75/9/4
f 61/81/1 78/81/1 75/9/1
f 63/10/13 76/10/13 77/73/13
f 60/73/5 77/73/5 78/81/5
f 71/8/43 81/8/43 80/8/43
f 64/7/44 8/7/44 82/7/44
f 80/8/84 85/8/84 84/8/84
f 59/12/46 5/12/46 86/12/46
f 68/11/47 89/11/47 88/11/47
f 11/16/48 90/16/48 91/15/48
f 10/18/49 17/18/49 93/18/49
f 6/17/50 94/17/50 95/17/50
f 7/14/51 16/14/51 97/14/51
f 5/12/52 98/12/52 99/12/52
f 86/12/53 99/12/53 101/12/53
f 82/7/54 8/7/54 102/7/54
f 103/7/55 105/7/55 104/7/55
f 12/8/56 106/8/56 107/8/56
f 80/8/57 107/8/57 109/8/57
f 9/11/58 88/11/58 111/11/58
f 88/11/59 112/11/59 113/11/59
l 12 79
