# Blender 4.0.2
# www.blender.org
mtllib world_planet.mtl
o Sphere
v 0.000000 0.382683 -0.923880
v 0.000000 0.000000 -1.000000
v 0.000000 -0.382683 -0.923880
v 0.000000 -0.923880 -0.382683
v 0.146447 0.923880 -0.353553
v 0.270598 0.707107 -0.653281
v 0.353553 0.382683 -0.853553
v 0.382683 0.000000 -0.923880
v 0.353553 -0.382683 -0.853553
v 0.270598 -0.707107 -0.653281
v 0.146447 -0.923880 -0.353553
v 0.270598 0.923880 -0.270598
v 0.500000 0.707107 -0.500000
v 0.653282 0.382683 -0.653281
v 0.707107 0.000000 -0.707107
v 0.653282 -0.382683 -0.653281
v 0.500000 -0.707107 -0.500000
v 0.270598 -0.923880 -0.270598
v 0.353553 0.923880 -0.146447
v 0.653281 0.707107 -0.270598
v 0.853553 0.382683 -0.353553
v 0.923880 0.000000 -0.382683
v 0.853553 -0.382683 -0.353553
v 0.653281 -0.707107 -0.270598
v 0.353553 -0.923880 -0.146447
v 0.382683 0.923880 0.000000
v 0.707107 0.707107 0.000000
v 0.923880 0.382683 0.000000
v 1.000000 0.000000 0.000000
v 0.923880 -0.382683 0.000000
v 0.707107 -0.707107 0.000000
v 0.382683 -0.923880 0.000000
v 0.353553 0.923880 0.146447
v 0.653281 0.707107 0.270598
v 0.853553 0.382683 0.353554
v 0.923879 0.000000 0.382684
v 0.853553 -0.382683 0.353554
v 0.653281 -0.707107 0.270598
v 0.353553 -0.923880 0.146447
v 0.270598 0.923880 0.270598
v 0.500000 0.707107 0.500000
v 0.653281 0.382683 0.653282
v 0.707107 0.000000 0.707107
v 0.653281 -0.382683 0.653282
v 0.500000 -0.707107 0.500000
v 0.270598 -0.923880 0.270598
v 0.146447 0.923880 0.353553
v 0.270598 0.707107 0.653281
v 0.353553 0.382683 0.853553
v 0.382683 0.000000 0.923880
v 0.353553 -0.382683 0.853553
v 0.270598 -0.707107 0.653281
v 0.146447 -0.923880 0.353553
v -0.000000 0.923880 0.382683
v -0.000000 0.707107 0.707107
v -0.000000 0.382683 0.923879
v -0.000000 0.000000 1.000000
v -0.000000 -0.382683 0.923879
v -0.000000 -0.707107 0.707107
v -0.000000 -0.923880 0.382683
v 0.000000 -1.000000 0.000000
v 0.000000 1.000000 0.000000
v -0.146447 0.923880 0.353553
v -0.270598 0.707107 0.653281
v -0.353554 0.382683 0.853553
v -0.382684 0.000000 0.923879
v -0.353554 -0.382683 0.853553
v -0.270598 -0.707107 0.653281
v -0.146447 -0.923880 0.353553
v -0.270598 0.923880 0.270598
v -0.500000 0.707107 0.500000
v -0.653282 0.382683 0.653281
v -0.707107 0.000000 0.707106
v -0.653282 -0.382683 0.653281
v -0.500000 -0.707107 0.500000
v -0.270598 -0.923880 0.270598
v -0.353553 0.923880 0.146446
v -0.653281 0.707107 0.270598
v -0.853553 0.382683 0.353553
v -0.923880 0.000000 0.382683
v -0.853553 -0.382683 0.353553
v -0.653281 -0.707107 0.270598
v -0.353553 -0.923880 0.146446
v -0.382683 0.923880 -0.000000
v -0.707107 0.707107 -0.000000
v -0.923879 0.382683 -0.000000
v -1.000000 0.000000 -0.000001
v -0.923879 -0.382683 -0.000000
v -0.707107 -0.707107 -0.000000
v -0.382683 -0.923880 -0.000000
v -0.353553 0.923880 -0.146447
v -0.653281 0.707107 -0.270598
v -0.853553 0.382683 -0.353554
v -0.923879 0.000000 -0.382684
v -0.853553 -0.382683 -0.353554
v -0.653281 -0.707107 -0.270598
v -0.353553 -0.923880 -0.146447
v -0.270598 0.923880 -0.270598
v -0.500000 0.707107 -0.500000
v -0.653281 0.382683 -0.653282
v -0.707106 0.000000 -0.707107
v -0.653281 -0.382683 -0.653282
v -0.500000 -0.707107 -0.500000
v -0.270598 -0.923880 -0.270598
v -0.146446 0.923880 -0.353554
v -0.270598 0.707107 -0.653281
v -0.353553 0.382683 -0.853553
v -0.382683 0.000000 -0.923880
v -0.353553 -0.382683 -0.853553
v -0.270598 -0.707107 -0.653281
v -0.146446 -0.923880 -0.353554
v 0.000000 0.923880 -0.382683
v 0.000000 0.707107 -0.707107
v 0.000000 -0.707107 -0.707107
vn 0.0388 -0.9800 -0.1949
vn 0.1632 -0.5481 -0.8203
vn 0.1915 0.1915 -0.9626
vn 0.1098 0.8264 -0.5522
vn 0.1098 -0.8264 -0.5522
vn 0.1915 -0.1915 -0.9626
vn 0.1632 0.5481 -0.8203
vn 0.0388 0.9800 -0.1949
vn 0.3128 0.8264 -0.4681
vn 0.3128 -0.8264 -0.4681
vn 0.5453 -0.1915 -0.8161
vn 0.4647 0.5481 -0.6954
vn 0.1104 0.9800 -0.1653
vn 0.1104 -0.9800 -0.1653
vn 0.4647 -0.5481 -0.6954
vn 0.5453 0.1915 -0.8161
vn 0.4681 -0.8264 -0.3128
vn 0.8161 -0.1915 -0.5453
vn 0.6954 0.5481 -0.4647
vn 0.1653 0.9800 -0.1104
vn 0.1653 -0.9800 -0.1104
vn 0.6954 -0.5481 -0.4647
vn 0.8161 0.1915 -0.5453
vn 0.4681 0.8264 -0.3128
vn 0.1949 0.9800 -0.0388
vn 0.1949 -0.9800 -0.0388
vn 0.8203 -0.5481 -0.1632
vn 0.9626 0.1915 -0.1915
vn 0.5522 0.8264 -0.1098
vn 0.5522 -0.8264 -0.1098
vn 0.9626 -0.1915 -0.1915
vn 0.8203 0.5481 -0.1632
vn 0.8203 -0.5481 0.1632
vn 0.9626 0.1915 0.1915
vn 0.5522 0.8264 0.1098
vn 0.5522 -0.8264 0.1098
vn 0.9626 -0.1915 0.1915
vn 0.8203 0.5481 0.1632
vn 0.1949 0.9800 0.0388
vn 0.1949 -0.9800 0.0388
vn 0.4681 -0.8264 0.3128
vn 0.8161 -0.1915 0.5453
vn 0.6954 0.5481 0.4647
vn 0.1653 0.9800 0.1104
vn 0.1653 -0.9800 0.1104
vn 0.6954 -0.5481 0.4647
vn 0.8161 0.1915 0.5453
vn 0.4681 0.8264 0.3128
vn 0.5453 -0.1915 0.8161
vn 0.4647 0.5481 0.6954
vn 0.1104 0.9800 0.1653
vn 0.1104 -0.9800 0.1653
vn 0.4647 -0.5481 0.6954
vn 0.5453 0.1915 0.8161
vn 0.3128 0.8264 0.4681
vn 0.3128 -0.8264 0.4681
vn 0.0388 -0.9800 0.1949
vn 0.1632 -0.5481 0.8203
vn 0.1915 0.1915 0.9626
vn 0.1098 0.8264 0.5522
vn 0.1098 -0.8264 0.5522
vn 0.1915 -0.1915 0.9626
vn 0.1632 0.5481 0.8203
vn 0.0388 0.9800 0.1949
vn -0.1915 0.1915 0.9626
vn -0.1098 0.8264 0.5522
vn -0.1098 -0.8264 0.5522
vn -0.1915 -0.1915 0.9626
vn -0.1632 0.5481 0.8203
vn -0.0388 0.9800 0.1949
vn -0.0388 -0.9800 0.1949
vn -0.1632 -0.5481 0.8203
vn -0.3128 -0.8264 0.4681
vn -0.5453 -0.1915 0.8161
vn -0.4647 0.5481 0.6954
vn -0.1104 0.9800 0.1653
vn -0.1104 -0.9800 0.1653
vn -0.4647 -0.5481 0.6954
vn -0.5453 0.1915 0.8161
vn -0.3128 0.8264 0.4681
vn -0.6954 0.5481 0.4647
vn -0.1653 0.9800 0.1104
vn -0.1653 -0.9800 0.1104
vn -0.6954 -0.5481 0.4647
vn -0.8161 0.1915 0.5453
vn -0.4681 0.8264 0.3128
vn -0.4681 -0.8264 0.3128
vn -0.8161 -0.1915 0.5453
vn -0.1949 -0.9800 0.0388
vn -0.8203 -0.5481 0.1632
vn -0.9626 0.1915 0.1915
vn -0.5522 0.8264 0.1098
vn -0.5522 -0.8264 0.1098
vn -0.9626 -0.1915 0.1915
vn -0.8203 0.5481 0.1632
vn -0.1949 0.9800 0.0388
vn -0.5522 0.8264 -0.1098
vn -0.5522 -0.8264 -0.1098
vn -0.9626 -0.1915 -0.1915
vn -0.8203 0.5481 -0.1632
vn -0.1949 0.9800 -0.0388
vn -0.1949 -0.9800 -0.0388
vn -0.8203 -0.5481 -0.1632
vn -0.9626 0.1915 -0.1915
vn -0.4681 -0.8264 -0.3128
vn -0.8161 -0.1915 -0.5453
vn -0.6954 0.5481 -0.4647
vn -0.1653 0.9800 -0.1104
vn -0.1653 -0.9800 -0.1104
vn -0.6954 -0.5481 -0.4647
vn -0.8161 0.1915 -0.5453
vn -0.4681 0.8264 -0.3128
vn -0.1104 0.9800 -0.1653
vn -0.1104 -0.9800 -0.1653
vn -0.4647 -0.5481 -0.6954
vn -0.5453 0.1915 -0.8161
vn -0.3128 0.8264 -0.4681
vn -0.3128 -0.8264 -0.4681
vn -0.5453 -0.1915 -0.8161
vn -0.4647 0.5481 -0.6954
vn -0.1632 -0.5481 -0.8203
vn -0.1915 0.1915 -0.9626
vn -0.1098 0.8264 -0.5522
vn -0.1098 -0.8264 -0.5522
vn -0.1915 -0.1915 -0.9626
vn -0.1632 0.5481 -0.8203
vn -0.0388 0.9800 -0.1949
vn -0.0388 -0.9800 -0.1949
vt 0.718750 0.000000
vt 0.750000 0.125000
vt 0.687500 0.125000
vt 0.750000 0.250000
vt 0.687500 0.375000
vt 0.687500 0.250000
vt 0.750000 0.625000
vt 0.687500 0.500000
vt 0.750000 0.500000
vt 0.750000 0.750000
vt 0.687500 0.875000
vt 0.687500 0.750000
vt 0.750000 0.375000
vt 0.687500 0.625000
vt 0.750000 0.875000
vt 0.718750 1.000000
vt 0.625000 0.750000
vt 0.625000 0.125000
vt 0.625000 0.500000
vt 0.625000 0.375000
vt 0.625000 0.625000
vt 0.656250 1.000000
vt 0.625000 0.875000
vt 0.656250 0.000000
vt 0.625000 0.250000
vt 0.562500 0.125000
vt 0.562500 0.375000
vt 0.562500 0.625000
vt 0.593750 1.000000
vt 0.562500 0.875000
vt 0.593750 0.000000
vt 0.562500 0.250000
vt 0.562500 0.500000
vt 0.562500 0.750000
vt 0.531250 1.000000
vt 0.500000 0.875000
vt 0.531250 0.000000
vt 0.500000 0.125000
vt 0.500000 0.250000
vt 0.500000 0.500000
vt 0.500000 0.750000
vt 0.500000 0.375000
vt 0.500000 0.625000
vt 0.437500 0.250000
vt 0.437500 0.500000
vt 0.437500 0.875000
vt 0.437500 0.750000
vt 0.437500 0.125000
vt 0.437500 0.375000
vt 0.437500 0.625000
vt 0.468750 1.000000
vt 0.468750 0.000000
vt 0.375000 0.250000
vt 0.375000 0.125000
vt 0.375000 0.375000
vt 0.375000 0.625000
vt 0.406250 1.000000
vt 0.375000 0.875000
vt 0.406250 0.000000
vt 0.375000 0.500000
vt 0.375000 0.750000
vt 0.312500 0.500000
vt 0.312500 0.375000
vt 0.312500 0.625000
vt 0.343750 1.000000
vt 0.312500 0.875000
vt 0.343750 0.000000
vt 0.312500 0.125000
vt 0.312500 0.250000
vt 0.312500 0.750000
vt 0.281250 0.000000
vt 0.250000 0.125000
vt 0.250000 0.250000
vt 0.250000 0.625000
vt 0.250000 0.500000
vt 0.250000 0.750000
vt 0.250000 0.375000
vt 0.281250 1.000000
vt 0.250000 0.875000
vt 0.187500 0.500000
vt 0.187500 0.750000
vt 0.187500 0.125000
vt 0.187500 0.375000
vt 0.187500 0.625000
vt 0.218750 1.000000
vt 0.187500 0.875000
vt 0.218750 0.000000
vt 0.187500 0.250000
vt 0.125000 0.250000
vt 0.125000 0.125000
vt 0.125000 0.375000
vt 0.125000 0.625000
vt 0.156250 1.000000
vt 0.125000 0.875000
vt 0.156250 0.000000
vt 0.125000 0.500000
vt 0.125000 0.750000
vt 0.062500 0.625000
vt 0.093750 1.000000
vt 0.062500 0.875000
vt 0.093750 0.000000
vt 0.062500 0.125000
vt 0.062500 0.375000
vt 0.062500 0.250000
vt 0.062500 0.500000
vt 0.062500 0.750000
vt 0.031250 0.000000
vt 0.000000 0.125000
vt 0.000000 0.375000
vt 0.000000 0.250000
vt 0.000000 0.625000
vt 0.000000 0.500000
vt 0.000000 0.875000
vt 0.000000 0.750000
vt 0.031250 1.000000
vt 1.000000 0.875000
vt 0.937500 0.750000
vt 1.000000 0.750000
vt 1.000000 0.250000
vt 0.937500 0.125000
vt 1.000000 0.125000
vt 1.000000 0.500000
vt 0.937500 0.375000
vt 1.000000 0.375000
vt 0.937500 0.625000
vt 1.000000 0.625000
vt 0.968750 1.000000
vt 0.937500 0.875000
vt 0.968750 0.000000
vt 0.937500 0.250000
vt 0.937500 0.500000
vt 0.875000 0.125000
vt 0.875000 0.375000
vt 0.875000 0.625000
vt 0.906250 1.000000
vt 0.875000 0.875000
vt 0.906250 0.000000
vt 0.875000 0.250000
vt 0.875000 0.500000
vt 0.875000 0.750000
vt 0.843750 1.000000
vt 0.812500 0.875000
vt 0.843750 0.000000
vt 0.812500 0.125000
vt 0.812500 0.375000
vt 0.812500 0.250000
vt 0.812500 0.625000
vt 0.812500 0.500000
vt 0.812500 0.750000
vt 0.781250 1.000000
vt 0.781250 0.000000
s 0
usemtl Material.001
f 61/1/1 4/2/1 11/3/1
f 114/4/2 9/5/2 10/6/2
f 1/7/3 8/8/3 2/9/3
f 113/10/4 5/11/4 6/12/4
f 114/4/5 11/3/5 4/2/5
f 2/9/6 9/5/6 3/13/6
f 113/10/7 7/14/7 1/7/7
f 112/15/8 62/16/8 5/11/8
f 5/11/9 13/17/9 6/12/9
f 10/6/10 18/18/10 11/3/10
f 9/5/11 15/19/11 16/20/11
f 6/12/12 14/21/12 7/14/12
f 5/11/13 62/22/13 12/23/13
f 61/24/14 11/3/14 18/18/14
f 9/5/15 17/25/15 10/6/15
f 7/14/16 15/19/16 8/8/16
f 17/25/17 25/26/17 18/18/17
f 15/19/18 23/27/18 16/20/18
f 13/17/19 21/28/19 14/21/19
f 12/23/20 62/29/20 19/30/20
f 61/31/21 18/18/21 25/26/21
f 17/25/22 23/27/22 24/32/22
f 15/19/23 21/28/23 22/33/23
f 12/23/24 20/34/24 13/17/24
f 19/30/25 62/35/25 26/36/25
f 61/37/26 25/26/26 32/38/26
f 23/27/27 31/39/27 24/32/27
f 21/28/28 29/40/28 22/33/28
f 19/30/29 27/41/29 20/34/29
f 24/32/30 32/38/30 25/26/30
f 23/27/31 29/40/31 30/42/31
f 21/28/32 27/41/32 28/43/32
f 30/42/33 38/44/33 31/39/33
f 28/43/34 36/45/34 29/40/34
f 27/41/35 33/46/35 34/47/35
f 32/38/36 38/44/36 39/48/36
f 29/40/37 37/49/37 30/42/37
f 27/41/38 35/50/38 28/43/38
f 26/36/39 62/51/39 33/46/39
f 61/52/40 32/38/40 39/48/40
f 39/48/41 45/53/41 46/54/41
f 36/45/42 44/55/42 37/49/42
f 34/47/43 42/56/43 35/50/43
f 33/46/44 62/57/44 40/58/44
f 61/59/45 39/48/45 46/54/45
f 37/49/46 45/53/46 38/44/46
f 36/45/47 42/56/47 43/60/47
f 34/47/48 40/58/48 41/61/48
f 44/55/49 50/62/49 51/63/49
f 41/61/50 49/64/50 42/56/50
f 40/58/51 62/65/51 47/66/51
f 61/67/52 46/54/52 53/68/52
f 45/53/53 51/63/53 52/69/53
f 42/56/54 50/62/54 43/60/54
f 40/58/55 48/70/55 41/61/55
f 45/53/56 53/68/56 46/54/56
f 61/71/57 53/68/57 60/72/57
f 51/63/58 59/73/58 52/69/58
f 50/62/59 56/74/59 57/75/59
f 47/66/60 55/76/60 48/70/60
f 53/68/61 59/73/61 60/72/61
f 50/62/62 58/77/62 51/63/62
f 48/70/63 56/74/63 49/64/63
f 47/66/64 62/78/64 54/79/64
f 56/74/65 66/80/65 57/75/65
f 54/79/66 64/81/66 55/76/66
f 59/73/67 69/82/67 60/72/67
f 57/75/68 67/83/68 58/77/68
f 55/76/69 65/84/69 56/74/69
f 54/79/70 62/85/70 63/86/70
f 61/87/71 60/72/71 69/82/71
f 59/73/72 67/83/72 68/88/72
f 69/82/73 75/89/73 76/90/73
f 66/80/74 74/91/74 67/83/74
f 64/81/75 72/92/75 65/84/75
f 63/86/76 62/93/76 70/94/76
f 61/95/77 69/82/77 76/90/77
f 68/88/78 74/91/78 75/89/78
f 66/80/79 72/92/79 73/96/79
f 63/86/80 71/97/80 64/81/80
f 71/97/81 79/98/81 72/92/81
f 70/94/82 62/99/82 77/100/82
f 61/101/83 76/90/83 83/102/83
f 75/89/84 81/103/84 82/104/84
f 73/96/85 79/98/85 80/105/85
f 70/94/86 78/106/86 71/97/86
f 75/89/87 83/102/87 76/90/87
f 73/96/88 81/103/88 74/91/88
f 61/107/89 83/102/89 90/108/89
f 82/104/90 88/109/90 89/110/90
f 80/105/91 86/111/91 87/112/91
f 78/106/92 84/113/92 85/114/92
f 82/104/93 90/108/93 83/102/93
f 80/105/94 88/109/94 81/103/94
f 78/106/95 86/111/95 79/98/95
f 77/100/96 62/115/96 84/113/96
f 84/116/97 92/117/97 85/118/97
f 89/119/98 97/120/98 90/121/98
f 87/122/99 95/123/99 88/124/99
f 85/118/100 93/125/100 86/126/100
f 84/116/101 62/127/101 91/128/101
f 61/129/102 90/121/102 97/120/102
f 88/124/103 96/130/103 89/119/103
f 87/122/104 93/125/104 94/131/104
f 96/130/105 104/132/105 97/120/105
f 94/131/106 102/133/106 95/123/106
f 92/117/107 100/134/107 93/125/107
f 91/128/108 62/135/108 98/136/108
f 61/137/109 97/120/109 104/132/109
f 96/130/110 102/133/110 103/138/110
f 94/131/111 100/134/111 101/139/111
f 91/128/112 99/140/112 92/117/112
f 98/136/113 62/141/113 105/142/113
f 61/143/114 104/132/114 111/144/114
f 103/138/115 109/145/115 110/146/115
f 101/139/116 107/147/116 108/148/116
f 98/136/117 106/149/117 99/140/117
f 103/138/118 111/144/118 104/132/118
f 101/139/119 109/145/119 102/133/119
f 99/140/120 107/147/120 100/134/120
f 110/146/121 3/13/121 114/4/121
f 107/147/122 2/9/122 108/148/122
f 106/149/123 112/15/123 113/10/123
f 110/146/124 4/2/124 111/144/124
f 108/148/125 3/13/125 109/145/125
f 106/149/126 1/7/126 107/147/126
f 105/142/127 62/150/127 112/15/127
f 61/151/128 111/144/128 4/2/128
f 114/4/2 3/13/2 9/5/2
f 1/7/3 7/14/3 8/8/3
f 113/10/4 112/15/4 5/11/4
f 114/4/5 10/6/5 11/3/5
f 2/9/6 8/8/6 9/5/6
f 113/10/7 6/12/7 7/14/7
f 5/11/9 12/23/9 13/17/9
f 10/6/10 17/25/10 18/18/10
f 9/5/11 8/8/11 15/19/11
f 6/12/12 13/17/12 14/21/12
f 9/5/15 16/20/15 17/25/15
f 7/14/16 14/21/16 15/19/16
f 17/25/17 24/32/17 25/26/17
f 15/19/18 22/33/18 23/27/18
f 13/17/19 20/34/19 21/28/19
f 17/25/22 16/20/22 23/27/22
f 15/19/23 14/21/23 21/28/23
f 12/23/24 19/30/24 20/34/24
f 23/27/27 30/42/27 31/39/27
f 21/28/28 28/43/28 29/40/28
f 19/30/29 26/36/29 27/41/29
f 24/32/30 31/39/30 32/38/30
f 23/27/31 22/33/31 29/40/31
f 21/28/32 20/34/32 27/41/32
f 30/42/33 37/49/33 38/44/33
f 28/43/34 35/50/34 36/45/34
f 27/41/35 26/36/35 33/46/35
f 32/38/36 31/39/36 38/44/36
f 29/40/37 36/45/37 37/49/37
f 27/41/38 34/47/38 35/50/38
f 39/48/41 38/44/41 45/53/41
f 36/45/42 43/60/42 44/55/42
f 34/47/43 41/61/43 42/56/43
f 37/49/46 44/55/46 45/53/46
f 36/45/47 35/50/47 42/56/47
f 34/47/48 33/46/48 40/58/48
f 44/55/49 43/60/49 50/62/49
f 41/61/50 48/70/50 49/64/50
f 45/53/53 44/55/53 51/63/53
f 42/56/54 49/64/54 50/62/54
f 40/58/55 47/66/55 48/70/55
f 45/53/56 52/69/56 53/68/56
f 51/63/58 58/77/58 59/73/58
f 50/62/59 49/64/59 56/74/59
f 47/66/60 54/79/60 55/76/60
f 53/68/61 52/69/61 59/73/61
f 50/62/62 57/75/62 58/77/62
f 48/70/63 55/76/63 56/74/63
f 56/74/65 65/84/65 66/80/65
f 54/79/66 63/86/66 64/81/66
f 59/73/67 68/88/67 69/82/67
f 57/75/68 66/80/68 67/83/68
f 55/76/69 64/81/69 65/84/69
f 59/73/72 58/77/72 67/83/72
f 69/82/73 68/88/73 75/89/73
f 66/80/74 73/96/74 74/91/74
f 64/81/75 71/97/75 72/92/75
f 68/88/78 67/83/78 74/91/78
f 66/80/79 65/84/79 72/92/79
f 63/86/80 70/94/80 71/97/80
f 71/97/81 78/106/81 79/98/81
f 75/89/84 74/91/84 81/103/84
f 73/96/85 72/92/85 79/98/85
f 70/94/86 77/100/86 78/106/86
f 75/89/87 82/104/87 83/102/87
f 73/96/88 80/105/88 81/103/88
f 82/104/90 81/103/90 88/109/90
f 80/105/91 79/98/91 86/111/91
f 78/106/92 77/100/92 84/113/92
f 82/104/93 89/110/93 90/108/93
f 80/105/94 87/112/94 88/109/94
f 78/106/95 85/114/95 86/111/95
f 84/116/97 91/128/97 92/117/97
f 89/119/98 96/130/98 97/120/98
f 87/122/99 94/131/99 95/123/99
f 85/118/100 92/117/100 93/125/100
f 88/124/103 95/123/103 96/130/103
f 87/122/104 86/126/104 93/125/104
f 96/130/105 103/138/105 104/132/105
f 94/131/106 101/139/106 102/133/106
f 92/117/107 99/140/107 100/134/107
f 96/130/110 95/123/110 102/133/110
f 94/131/111 93/125/111 100/134/111
f 91/128/112 98/136/112 99/140/112
f 103/138/115 102/133/115 109/145/115
f 101/139/116 100/134/116 107/147/116
f 98/136/117 105/142/117 106/149/117
f 103/138/118 110/146/118 111/144/118
f 101/139/119 108/148/119 109/145/119
f 99/140/120 106/149/120 107/147/120
f 110/146/121 109/145/121 3/13/121
f 107/147/122 1/7/122 2/9/122
f 106/149/123 105/142/123 112/15/123
f 110/146/124 114/4/124 4/2/124
f 108/148/125 2/9/125 3/13/125
f 106/149/126 113/10/126 1/7/126
